<svg viewBox="0 0 24 24" xmlns="http://www.w3.org/2000/svg">
<path fill-rule="evenodd" clip-rule="evenodd" d="M18.066 15.3231C17.9972 15.3246 17.9281 15.3254 17.8589 15.3254C12.7866 15.3254 8.67467 11.2134 8.67467 6.14108C8.67467 6.07187 8.67544 6.00283 8.67697 5.93396C7.1485 7.15847 6.16987 9.04114 6.16987 11.1507C6.16987 14.8396 9.16037 17.8301 12.8493 17.8301C14.9589 17.8301 16.8415 16.8515 18.066 15.3231ZM19.083 13.5563C18.6847 13.6215 18.2758 13.6555 17.8589 13.6555C13.7089 13.6555 10.3445 10.2912 10.3445 6.14108C10.3445 5.72424 10.3785 5.31533 10.4438 4.91696C10.5541 4.24366 10.7539 3.60047 11.0305 3C10.3114 3.15977 9.6271 3.4123 8.99096 3.74438C6.32195 5.13768 4.5 7.9314 4.5 11.1507C4.5 15.7619 8.23813 19.5 12.8493 19.5C16.0686 19.5 18.8623 17.6781 20.2556 15.0091C20.5877 14.3729 20.8402 13.6887 21 12.9695C20.3995 13.2462 19.7563 13.446 19.083 13.5563Z" />
</svg>
