<svg viewBox="0 0 16 16" xmlns="http://www.w3.org/2000/svg">
<path d="M12.9478 6.46699C12.9478 4.91095 11.4602 3.80287 9.98606 4.22274C9.51265 3.24751 8.52312 2.58334 7.37492 2.58334C5.82117 2.58334 4.54896 3.81202 4.47875 5.34873C2.67828 5.75889 1.7969 7.84092 2.7832 9.41931C2.74239 9.566 2.71812 9.71946 2.71312 9.87777C1.92281 10.0656 1.33325 10.7768 1.33325 11.623C1.33325 12.612 2.13875 13.4167 3.12882 13.4167H9.10409C10.5242 13.4167 11.6079 12.1087 11.3101 10.6974H12.5312C13.7086 10.6974 14.6666 9.73946 14.6666 8.56199C14.6666 7.51626 13.9188 6.65811 12.9478 6.46699ZM9.10409 12.5833H3.12882C2.59825 12.5833 2.16659 12.1525 2.16659 11.623C2.16659 11.1215 2.55896 10.6626 3.15953 10.6626C3.42247 10.6626 3.62036 10.4214 3.56786 10.163C3.38106 9.24334 4.34606 8.52709 5.16919 8.94894C5.40052 9.06746 5.6826 8.94735 5.75791 8.6991C5.95726 8.04217 6.57721 7.58334 7.26554 7.58334C8.18276 7.58334 8.91664 8.36944 8.83427 9.29665C8.81372 9.52761 8.98583 9.73095 9.21687 9.749C9.95093 9.80623 10.526 10.4278 10.526 11.1639C10.526 11.9466 9.88812 12.5833 9.10409 12.5833ZM12.5312 9.86407H10.9458C10.6338 9.42392 10.181 9.11405 9.66776 8.98225C9.57838 7.73644 8.5351 6.75001 7.26554 6.75001C6.32781 6.75001 5.52784 7.2804 5.12698 8.04991C4.47218 7.88881 3.78112 8.07496 3.29463 8.5534C2.92898 7.39261 3.75601 6.21209 4.93468 6.12009C5.16588 6.10202 5.33778 5.89858 5.31729 5.66774C5.20974 4.46254 6.15976 3.41668 7.37492 3.41668C8.27758 3.41668 9.09078 4.01949 9.35247 4.88261C9.42784 5.13118 9.71039 5.25118 9.94169 5.1323C11.0429 4.56623 12.3341 5.52754 12.0845 6.76053C12.0323 7.01814 12.2293 7.25991 12.4929 7.25991C12.8835 7.25991 13.2002 7.38972 13.4518 7.64113C14.2647 8.45467 13.6949 9.86407 12.5312 9.86407Z" stroke-width="0.2"/>
</svg>
