<svg viewBox="0 0 16 16" xmlns="http://www.w3.org/2000/svg">
<path d="M8 11.75C5.93224 11.75 4.25 10.0678 4.25 8C4.25 5.93224 5.93224 4.25 8 4.25C10.0678 4.25 11.75 5.93224 11.75 8C11.75 10.0678 10.0678 11.75 8 11.75ZM8 5.08333C6.39174 5.08333 5.08333 6.39174 5.08333 8C5.08333 9.60825 6.39174 10.9167 8 10.9167C9.60825 10.9167 10.9167 9.60825 10.9167 8C10.9167 6.39174 9.60825 5.08333 8 5.08333Z" stroke-width="0.2"/>
<path d="M7.99992 3.41668C7.76979 3.41668 7.58325 3.23011 7.58325 3.00001V1.75001C7.58325 1.51991 7.76979 1.33334 7.99992 1.33334C8.23005 1.33334 8.41659 1.51991 8.41659 1.75001V3.00001C8.41659 3.23011 8.23005 3.41668 7.99992 3.41668Z" stroke-width="0.2"/>
<path d="M7.99992 14.6667C7.76979 14.6667 7.58325 14.4801 7.58325 14.25V13C7.58325 12.7699 7.76979 12.5833 7.99992 12.5833C8.23005 12.5833 8.41659 12.7699 8.41659 13V14.25C8.41659 14.4801 8.23005 14.6667 7.99992 14.6667Z" stroke-width="0.2"/>
<path d="M14.2499 8.41668H12.9999C12.7698 8.41668 12.5833 8.23011 12.5833 8.00001C12.5833 7.76991 12.7698 7.58334 12.9999 7.58334H14.2499C14.48 7.58334 14.6666 7.76991 14.6666 8.00001C14.6666 8.23011 14.48 8.41668 14.2499 8.41668Z" stroke-width="0.2"/>
<path d="M2.99992 8.41668H1.74992C1.51979 8.41668 1.33325 8.23011 1.33325 8.00001C1.33325 7.76991 1.51979 7.58334 1.74992 7.58334H2.99992C3.23005 7.58334 3.41659 7.76991 3.41659 8.00001C3.41659 8.23011 3.23005 8.41668 2.99992 8.41668Z" stroke-width="0.2"/>
<path d="M11.5355 4.88116C11.1677 4.88116 10.9777 4.43309 11.2409 4.16986L12.1248 3.28598C12.2875 3.12327 12.5514 3.12325 12.7141 3.28598C12.8768 3.44869 12.8768 3.71252 12.7141 3.87523L11.8302 4.75911C11.7488 4.84049 11.6421 4.88116 11.5355 4.88116Z" stroke-width="0.2"/>
<path d="M3.5807 12.8361C3.21283 12.8361 3.02283 12.388 3.28609 12.1248L4.16997 11.2409C4.33273 11.0782 4.59656 11.0782 4.75922 11.2409C4.92195 11.4036 4.92195 11.6674 4.75922 11.8301L3.87531 12.714C3.79395 12.7954 3.68734 12.8361 3.5807 12.8361Z" stroke-width="0.2"/>
<path d="M12.4194 12.8361C12.3128 12.8361 12.2062 12.7954 12.1248 12.7141L11.2409 11.8302C11.0782 11.6675 11.0782 11.4037 11.2409 11.2409C11.4037 11.0782 11.6675 11.0782 11.8302 11.2409L12.7141 12.1248C12.9773 12.388 12.7873 12.8361 12.4194 12.8361Z" stroke-width="0.2"/>
<path d="M4.46414 4.88118C4.3575 4.88118 4.25089 4.8405 4.16953 4.75915L3.28562 3.87527C3.12289 3.71253 3.12289 3.44873 3.28562 3.28602C3.44833 3.12329 3.71216 3.12329 3.87487 3.28602L4.75875 4.1699C5.022 4.43311 4.832 4.88118 4.46414 4.88118Z" stroke-width="0.2"/>
</svg>
