<svg  viewBox="0 0 14 14" xmlns="http://www.w3.org/2000/svg">
<path d="M7 13.6667C3.3181 13.6667 0.333336 10.6819 0.333336 7.00004C0.333336 3.31814 3.3181 0.333374 7 0.333374C10.6819 0.333374 13.6667 3.31814 13.6667 7.00004C13.6626 10.6803 10.6802 13.6627 7 13.6667ZM1.66667 7.11471C1.69821 10.0489 4.09407 12.4064 7.02836 12.3907C9.96265 12.3749 12.333 9.9917 12.333 7.05737C12.333 4.12304 9.96265 1.73989 7.02836 1.72404C4.09407 1.70835 1.69821 4.06588 1.66667 7.00004V7.11471ZM8.33334 10.3334H6.33334V7.66671H5.66667V6.33337H7.66667V9.00004H8.33334V10.3334ZM7.66667 5.00004H6.33334V3.66671H7.66667V5.00004Z" />
</svg>
