<svg width="12" height="11" viewBox="0 0 12 11"  xmlns="http://www.w3.org/2000/svg">
<path d="M10.6666 5.49996C11.0348 5.49996 11.3376 5.79961 11.2917 6.16492C11.1624 7.19375 10.7351 8.16789 10.0555 8.96368C9.23073 9.92931 8.08853 10.569 6.83428 10.7676C5.58003 10.9663 4.29605 10.7109 3.2133 10.0474C2.13055 9.38386 1.32007 8.35578 0.927658 7.14805C0.535242 5.94032 0.586638 4.6322 1.0726 3.45898C1.55856 2.28576 2.4472 1.32444 3.57868 0.747925C4.71015 0.17141 6.0102 0.017538 7.245 0.313986C8.26262 0.558296 9.18089 1.09524 9.8902 1.85159C10.1421 2.12016 10.0732 2.54054 9.77537 2.75696V2.75696C9.4775 2.97338 9.06397 2.90236 8.80113 2.64452C8.28677 2.13994 7.64238 1.78061 6.93374 1.61048C6.00764 1.38814 5.0326 1.50355 4.184 1.93593C3.33539 2.36832 2.66891 3.08931 2.30444 3.96923C1.93997 4.84914 1.90142 5.83023 2.19573 6.73603C2.49004 7.64183 3.0979 8.41289 3.90996 8.91052C4.72203 9.40815 5.68501 9.5997 6.6257 9.45071C7.56638 9.30172 8.42304 8.82197 9.04158 8.09775C9.51488 7.54359 9.82499 6.87412 9.94454 6.16357C10.0056 5.80048 10.2984 5.49996 10.6666 5.49996V5.49996Z" />
</svg>
