<svg viewBox="0 0 16 16" xmlns="http://www.w3.org/2000/svg">
<path d="M11.9062 10.02C11.9062 9.53871 11.7637 9.08855 11.5027 8.70597C12.1707 8.20329 12.5833 7.41155 12.5833 6.54168C12.5833 5.04829 11.3683 3.83334 9.87492 3.83334C8.47606 3.83334 7.32156 4.89936 7.18099 6.26168C5.36479 5.7079 3.52276 7.02405 3.437 8.90118C2.22679 9.17696 1.33325 10.2592 1.33325 11.5417C1.33325 13.0351 2.5482 14.25 4.04159 14.25H11.4895C12.667 14.25 13.6249 13.2921 13.6249 12.1146C13.6249 11.0796 12.8849 10.2143 11.9062 10.02ZM9.87492 4.66668C10.9088 4.66668 11.7499 5.5078 11.7499 6.54168C11.7499 7.17189 11.4265 7.76149 10.9087 8.10558C10.3348 7.7047 9.61601 7.58582 8.94476 7.77613C8.73927 7.3523 8.42382 6.96303 8.00432 6.66618C7.93299 5.57449 8.8014 4.66668 9.87492 4.66668ZM11.4895 13.4167H4.04159C3.00771 13.4167 2.16659 12.5756 2.16659 11.5417C2.16659 10.5692 2.92494 9.74814 3.89304 9.67251C4.12372 9.65452 4.29612 9.45155 4.27562 9.2203C4.16781 8.00683 5.12557 6.9692 6.33325 6.9692C7.23601 6.9692 8.04916 7.57199 8.31067 8.43506C8.38612 8.68399 8.66872 8.80345 8.89966 8.68496C9.99552 8.12272 11.2947 9.07332 11.0429 10.313C10.9907 10.5701 11.187 10.8125 11.4512 10.8125C12.2524 10.8125 12.7916 11.4291 12.7916 12.1146C12.7916 12.8326 12.2075 13.4167 11.4895 13.4167Z" stroke-width="0.2"/>
<path d="M9.87492 3.41667C10.105 3.41667 10.2916 3.2301 10.2916 3V2.16667C10.2916 1.93656 10.105 1.75 9.87492 1.75C9.64479 1.75 9.45825 1.93656 9.45825 2.16667V3C9.45825 3.2301 9.64479 3.41667 9.87492 3.41667Z" stroke-width="0.2"/>
<path d="M14.25 6.125H13.4167C13.1865 6.125 13 6.31156 13 6.54167C13 6.77177 13.1865 6.95833 13.4167 6.95833H14.25C14.4801 6.95833 14.6667 6.77177 14.6667 6.54167C14.6667 6.31156 14.4801 6.125 14.25 6.125Z" stroke-width="0.2"/>
<path d="M12.0845 8.75137C11.9217 8.9141 11.9217 9.1779 12.0845 9.34061L12.6737 9.92986C12.8364 10.0926 13.1002 10.0926 13.2629 9.92986C13.4257 9.76712 13.4257 9.50332 13.2629 9.34061L12.6737 8.75137C12.511 8.58866 12.2472 8.58866 12.0845 8.75137Z" stroke-width="0.2"/>
<path d="M7.07628 4.33192C7.23899 4.49466 7.50279 4.49466 7.66553 4.33192C7.82826 4.16919 7.82826 3.90539 7.66553 3.74268L7.07628 3.15343C6.91363 2.99073 6.6498 2.99073 6.48704 3.15343C6.32431 3.31617 6.32431 3.57997 6.48704 3.74268L7.07628 4.33192Z" stroke-width="0.2"/>
<path d="M12.3795 4.45402C12.4862 4.45402 12.5928 4.41334 12.6741 4.33196L13.2634 3.74272C13.4261 3.57998 13.4261 3.31618 13.2634 3.15347C13.1007 2.99077 12.8369 2.99074 12.6741 3.15347L12.0849 3.74274C11.8216 4.006 12.0117 4.45402 12.3795 4.45402Z" stroke-width="0.2"/>
</svg>
