<svg width="20" height="20" viewBox="0 0 20 20"  xmlns="http://www.w3.org/2000/svg">
<path d="M9.99995 20C8.488 20.0043 6.99517 19.6622 5.63595 19C5.13849 18.758 4.66187 18.4754 4.21095 18.155L4.07395 18.055C2.83377 17.1396 1.81982 15.9522 1.10995 14.584C0.375683 13.1679 -0.0051453 11.5952 -0.000103165 10C-0.000103165 4.47715 4.4771 0 9.99995 0C15.5228 0 20 4.47715 20 10C20.005 11.5944 19.6245 13.1664 18.8909 14.582C18.1821 15.9494 17.1695 17.1364 15.9309 18.052C15.4637 18.394 14.9679 18.6951 14.4489 18.952L14.3689 18.992C13.0089 19.6577 11.5142 20.0026 9.99995 20ZM9.99995 15C8.50142 14.9971 7.12761 15.834 6.44295 17.167C8.68434 18.2772 11.3156 18.2772 13.5569 17.167V17.162C12.8714 15.8305 11.4976 14.9954 9.99995 15ZM9.99995 13C12.1661 13.0028 14.1634 14.1701 15.2289 16.056L15.2439 16.043L15.2579 16.031L15.2409 16.046L15.2309 16.054C17.7599 13.8691 18.6642 10.3423 17.4986 7.21011C16.333 4.07788 13.343 2.00032 10.0009 2.00032C6.65885 2.00032 3.66894 4.07788 2.5033 7.21011C1.33766 10.3423 2.24195 13.8691 4.77095 16.054C5.83721 14.169 7.83431 13.0026 9.99995 13ZM9.99995 12C7.79081 12 5.99995 10.2091 5.99995 8C5.99995 5.79086 7.79081 4 9.99995 4C12.2091 4 13.9999 5.79086 13.9999 8C13.9999 9.06087 13.5785 10.0783 12.8284 10.8284C12.0782 11.5786 11.0608 12 9.99995 12ZM9.99995 6C8.89538 6 7.99995 6.89543 7.99995 8C7.99995 9.10457 8.89538 10 9.99995 10C11.1045 10 11.9999 9.10457 11.9999 8C11.9999 6.89543 11.1045 6 9.99995 6Z" />
</svg>
