<svg width="24" height="25" viewBox="0 0 24 25" fill="none" xmlns="http://www.w3.org/2000/svg">
<path d="M7 13.5C7.55228 13.5 8 13.0523 8 12.5C8 11.9477 7.55228 11.5 7 11.5C6.44772 11.5 6 11.9477 6 12.5C6 13.0523 6.44772 13.5 7 13.5Z" fill="#2E2836"/>
<path fill-rule="evenodd" clip-rule="evenodd" d="M12.2294 5.22963C13.0967 4.36228 14.2731 3.875 15.4998 3.875C16.7264 3.875 17.9028 4.36228 18.7701 5.22963C19.367 5.82652 19.7839 6.56976 19.9859 7.37502H22C22.6213 7.37502 23.125 7.87869 23.125 8.50002V16.5C23.125 17.0792 22.6874 17.5561 22.1248 17.6182V19.5C22.1248 20.1213 21.6211 20.625 20.9998 20.625H17.9998C17.3784 20.625 16.8748 20.1213 16.8748 19.5V17.625H7.12476V19.5C7.12476 20.1213 6.62108 20.625 5.99976 20.625H2.99976C2.37844 20.625 1.87476 20.1213 1.87476 19.5V17.6181C1.31238 17.5558 0.875 17.079 0.875 16.5V8.50002C0.875 7.87869 1.37868 7.37502 2 7.37502H11.0136C11.2156 6.56976 11.6325 5.82652 12.2294 5.22963ZM18.7701 11.7704C19.367 11.1735 19.7839 10.4303 19.9859 9.62502H20.875V15.375H17.9998L17.9913 15.375H6.00816L5.99976 15.375H3.125V9.62502H11.0137C11.2156 10.4303 11.6325 11.1735 12.2294 11.7704C13.0967 12.6377 14.2731 13.125 15.4998 13.125C16.7264 13.125 17.9028 12.6377 18.7701 11.7704ZM13.8204 10.1794C13.3796 9.73856 13.1299 9.14229 13.1248 8.51942L13.125 8.50002L13.1248 8.4806C13.1299 7.85772 13.3795 7.26145 13.8204 6.82062C14.2658 6.37522 14.8699 6.125 15.4998 6.125C16.1296 6.125 16.7337 6.37522 17.1791 6.82062C17.6245 7.26602 17.8748 7.87011 17.8748 8.5C17.8748 9.12989 17.6245 9.73398 17.1791 10.1794C16.7337 10.6248 16.1296 10.875 15.4998 10.875C14.8699 10.875 14.2658 10.6248 13.8204 10.1794ZM20.2 17.625H18.7V19.1H20.2V17.625ZM5.2 17.625H3.7V19H5.2V17.625Z" fill="#2E2836"/>
</svg>
