<svg width="17" height="17" viewBox="0 0 17 17"  xmlns="http://www.w3.org/2000/svg">
<path d="M16.0516 15.899C15.6611 16.2895 15.0281 16.2895 14.6375 15.8991L9.62861 10.891C7.08628 12.6985 3.58304 12.2564 1.56948 9.87395C-0.444085 7.49153 -0.296235 3.96361 1.90961 1.75802C4.11487 -0.448534 7.64313 -0.597024 10.026 1.41644C12.4089 3.42989 12.8512 6.93347 11.0436 9.47602L16.0517 14.485C16.4421 14.8755 16.4421 15.5085 16.0516 15.899ZM6.15161 2.00001C4.25531 1.99958 2.6193 3.3307 2.23408 5.18745C1.84886 7.04421 2.82032 8.91629 4.56028 9.67026C6.30025 10.4242 8.33051 9.85285 9.42185 8.30207C10.5132 6.75129 10.3657 4.64734 9.06861 3.26402L9.67361 3.86402L8.99161 3.18402L8.97961 3.17202C8.23139 2.4192 7.213 1.99715 6.15161 2.00001Z" />
</svg>
