<svg viewBox="0 0 24 24" xmlns="http://www.w3.org/2000/svg">
<path d="M19.385 18.8991C18.9945 19.2896 18.3614 19.2896 17.9709 18.8992L12.962 13.8911C10.4196 15.6986 6.91642 15.2565 4.90285 12.8741C2.88929 10.4917 3.03714 6.96373 5.24298 4.75814C7.44824 2.55159 10.9765 2.4031 13.3594 4.41656C15.7422 6.43002 16.1846 9.93359 14.377 12.4761L19.385 17.4851C19.7755 17.8756 19.7755 18.5087 19.385 18.8991ZM9.48498 5.00013C7.58868 4.9997 5.95267 6.33082 5.56745 8.18758C5.18224 10.0443 6.15369 11.9164 7.89366 12.6704C9.63362 13.4243 11.6639 12.853 12.7552 11.3022C13.8466 9.75141 13.699 7.64746 12.402 6.26414L13.007 6.86414L12.325 6.18414L12.313 6.17214C11.5648 5.41932 10.5464 4.99727 9.48498 5.00013Z"/>
</svg>
