<svg viewBox="0 0 16 16" xmlns="http://www.w3.org/2000/svg">
<path fill-rule="evenodd" clip-rule="evenodd" d="M8.60598 3.91173C8.60598 2.85773 7.32499 2.21624 6.52825 3.04587C6.52259 3.05176 6.51705 3.05777 6.51163 3.06389L4.71065 5.09779H2.54537C1.8539 5.09779 1.33325 5.67421 1.33325 6.33415V9.92142C1.33325 10.5816 1.85352 11.1584 2.54537 11.1584H4.70646L6.50663 13.1867C6.51016 13.1907 6.51375 13.1947 6.51738 13.1985C7.30839 14.0439 8.60598 13.407 8.60598 12.3445V3.91173ZM7.39385 3.91173C7.39385 3.90522 7.39333 3.90048 7.39275 3.89722L5.60093 5.92078C5.59624 5.92608 5.59145 5.9313 5.58657 5.93644C5.47496 6.05391 5.34072 6.14757 5.19193 6.21175C5.04314 6.27594 4.8829 6.30933 4.72086 6.3099L4.7187 6.30991H2.55261C2.54939 6.31387 2.54537 6.32151 2.54537 6.33415V9.92142C2.54537 9.93448 2.54949 9.94229 2.5527 9.94627H4.71566C4.88036 9.94676 5.0432 9.98115 5.19403 10.0473C5.34487 10.1134 5.48047 10.2099 5.5924 10.3308L5.60108 10.3403L7.39275 12.3591C7.39333 12.3558 7.39385 12.351 7.39385 12.3445V3.91173Z"/>
</svg>
