<svg viewBox="0 0 16 16" xmlns="http://www.w3.org/2000/svg">
<path fill-rule="evenodd" clip-rule="evenodd" d="M8.60598 3.91173C8.60598 2.85773 7.32499 2.21624 6.52825 3.04587C6.52259 3.05176 6.51705 3.05777 6.51163 3.06389L4.71065 5.09779H2.54537C1.8539 5.09779 1.33325 5.67421 1.33325 6.33415V9.92142C1.33325 10.5816 1.85352 11.1584 2.54537 11.1584H4.70646L6.50663 13.1867C6.51016 13.1907 6.51375 13.1947 6.51738 13.1985C7.30839 14.0439 8.60598 13.407 8.60598 12.3445V3.91173ZM7.39386 3.91173C7.39386 3.90522 7.39333 3.90048 7.39275 3.89722L5.60093 5.92078C5.59624 5.92608 5.59145 5.9313 5.58657 5.93644C5.47496 6.05391 5.34072 6.14757 5.19193 6.21176C5.04314 6.27594 4.8829 6.30933 4.72086 6.3099L4.71871 6.30991H2.55261C2.54939 6.31387 2.54537 6.32151 2.54537 6.33415V9.92142C2.54537 9.93448 2.54949 9.94229 2.5527 9.94627H4.71566C4.88036 9.94676 5.0432 9.98115 5.19403 10.0473C5.34487 10.1134 5.48047 10.2099 5.5924 10.3308L5.60108 10.3403L7.39275 12.3591C7.39333 12.3558 7.39386 12.351 7.39386 12.3445V3.91173Z"/>
<path d="M12.6609 3.44733C12.4188 3.21618 12.0352 3.22503 11.804 3.46712C11.5729 3.7092 11.5817 4.09283 11.8238 4.32399C13.9933 6.3956 14.0018 9.87849 11.8266 11.9296C11.583 12.1592 11.5718 12.5428 11.8014 12.7863C12.031 13.0298 12.4146 13.0411 12.6581 12.8115C15.3459 10.2771 15.3253 5.99148 12.6609 3.44733Z"/>
<path d="M10.9091 5.64332C10.7083 5.37551 10.3284 5.32117 10.0606 5.52196C9.7928 5.72274 9.73846 6.10261 9.93924 6.37042C10.2405 6.77219 10.424 7.42115 10.424 8.12808C10.424 8.83501 10.2405 9.48397 9.93924 9.88574C9.73846 10.1536 9.7928 10.5334 10.0606 10.7342C10.3284 10.935 10.7083 10.8807 10.9091 10.6128C11.4157 9.93704 11.6361 9.00357 11.6361 8.12808C11.6361 7.25259 11.4157 6.31912 10.9091 5.64332Z"/>
</svg>
