<svg width="24" height="25" viewBox="0 0 24 25" fill="none" xmlns="http://www.w3.org/2000/svg">
<path fill-rule="evenodd" clip-rule="evenodd" d="M6.97471 14.3001C6.97471 11.6905 9.09016 9.57508 11.6997 9.57508C14.3092 9.57508 16.4247 11.6905 16.4247 14.3001C16.4247 16.9096 14.3092 19.0251 11.6997 19.0251C9.09016 19.0251 6.97471 16.9096 6.97471 14.3001ZM11.6997 11.8251C10.3328 11.8251 9.22471 12.9332 9.22471 14.3001C9.22471 15.667 10.3328 16.7751 11.6997 16.7751C13.0666 16.7751 14.1747 15.667 14.1747 14.3001C14.1747 12.9332 13.0666 11.8251 11.6997 11.8251Z" fill="#2E2836"/>
<path d="M11.6996 5.97513C11.0782 5.97513 10.5746 6.47881 10.5746 7.10013C10.5746 7.72145 11.0782 8.22513 11.6996 8.22513H11.7096C12.3309 8.22513 12.8346 7.72145 12.8346 7.10013C12.8346 6.47881 12.3309 5.97513 11.7096 5.97513H11.6996Z" fill="#2E2836"/>
<path fill-rule="evenodd" clip-rule="evenodd" d="M3.59985 5.3001C3.59985 3.80893 4.80868 2.6001 6.29985 2.6001H17.0999C18.591 2.6001 19.7999 3.80893 19.7999 5.3001V19.7001C19.7999 21.1913 18.591 22.4001 17.0999 22.4001H6.29985C4.80868 22.4001 3.59985 21.1913 3.59985 19.7001V5.3001ZM6.29985 4.4001C5.8028 4.4001 5.39985 4.80304 5.39985 5.3001V19.7001C5.39985 20.1972 5.8028 20.6001 6.29985 20.6001H17.0999C17.5969 20.6001 17.9998 20.1972 17.9998 19.7001V5.3001C17.9998 4.80304 17.5969 4.4001 17.0999 4.4001H6.29985Z" fill="#2E2836"/>
</svg>
