<svg viewBox="0 0 16 16" xmlns="http://www.w3.org/2000/svg">
<path d="M5.62602 3.73151C5.62602 3.09548 5.87868 2.4855 6.32843 2.03575C6.77817 1.58601 7.38815 1.33334 8.02419 1.33334C8.66022 1.33334 9.27021 1.58601 9.71995 2.03575C10.1697 2.4855 10.4224 3.09548 10.4224 3.73151V8.95952C10.885 9.43175 11.198 10.0301 11.322 10.6795C11.446 11.3288 11.3756 12.0004 11.1195 12.6099C10.8633 13.2194 10.433 13.7397 9.88235 14.1056C9.33171 14.4715 8.68531 14.6667 8.02419 14.6667C7.36307 14.6667 6.71666 14.4715 6.16602 14.1056C5.61539 13.7397 5.18503 13.2194 4.92892 12.6099C4.6728 12.0004 4.60233 11.3288 4.72635 10.6795C4.85036 10.0301 5.16333 9.43175 5.62602 8.95952V3.73151ZM8.02419 2.29261C7.64257 2.29261 7.27658 2.44421 7.00673 2.71406C6.73688 2.9839 6.58529 3.34989 6.58529 3.73151V9.37872L6.42605 9.52261C6.06399 9.84639 5.80878 10.2725 5.69419 10.7445C5.5796 11.2165 5.61103 11.7121 5.78432 12.1659C5.95762 12.6196 6.2646 13.01 6.66465 13.2855C7.0647 13.5609 7.53896 13.7084 8.02467 13.7084C8.51038 13.7084 8.98463 13.5609 9.38468 13.2855C9.78473 13.01 10.0917 12.6196 10.265 12.1659C10.4383 11.7121 10.4697 11.2165 10.3551 10.7445C10.2405 10.2725 9.98534 9.84639 9.62329 9.52261L9.46309 9.37776V3.73151C9.46309 3.34989 9.31149 2.9839 9.04164 2.71406C8.7718 2.44421 8.40581 2.29261 8.02419 2.29261ZM8.50382 6.12968C8.50382 6.00248 8.45329 5.88048 8.36334 5.79053C8.27339 5.70058 8.15139 5.65005 8.02419 5.65005C7.89698 5.65005 7.77498 5.70058 7.68503 5.79053C7.59509 5.88048 7.54455 6.00248 7.54455 6.12968V10.0483C7.22453 10.1614 6.95482 10.3841 6.78307 10.6768C6.61133 10.9696 6.54861 11.3137 6.60601 11.6482C6.66341 11.9828 6.83722 12.2862 7.09674 12.505C7.35625 12.7238 7.68476 12.8438 8.02419 12.8438C8.36362 12.8438 8.69212 12.7238 8.95164 12.505C9.21115 12.2862 9.38497 11.9828 9.44237 11.6482C9.49976 11.3137 9.43705 10.9696 9.2653 10.6768C9.09356 10.3841 8.82384 10.1614 8.50382 10.0483V6.12968Z" />
</svg>
