<svg viewBox="0 0 16 17"  xmlns="http://www.w3.org/2000/svg">
<path d="M11.3333 15.1663H4.66667C3.93029 15.1663 3.33333 14.5694 3.33333 13.833V5.16634H2.66667C2.29848 5.16634 2 4.86786 2 4.49967C2 4.13148 2.29848 3.83301 2.66667 3.83301H4.66667V3.16634C4.66667 2.42996 5.26362 1.83301 6 1.83301H10C10.7364 1.83301 11.3333 2.42996 11.3333 3.16634V3.83301H13.3333C13.7015 3.83301 14 4.13148 14 4.49967C14 4.86786 13.7015 5.16634 13.3333 5.16634H12.6667V13.833C12.6667 14.5694 12.0697 15.1663 11.3333 15.1663ZM4.66667 5.16634V13.833H11.3333V5.16634H4.66667ZM6 3.16634V3.83301H10V3.16634H6ZM10 11.833C10 12.2012 9.70152 12.4997 9.33333 12.4997C8.96514 12.4997 8.66667 12.2012 8.66667 11.833V7.16634C8.66667 6.79815 8.96514 6.49967 9.33333 6.49967C9.70152 6.49967 10 6.79815 10 7.16634V11.833ZM7.33333 11.833C7.33333 12.2012 7.03486 12.4997 6.66667 12.4997C6.29848 12.4997 6 12.2012 6 11.833V7.16634C6 6.79815 6.29848 6.49967 6.66667 6.49967C7.03486 6.49967 7.33333 6.79815 7.33333 7.16634V11.833Z" />
</svg>
