<svg width="21" height="18" viewBox="0 0 21 18" fill="none" xmlns="http://www.w3.org/2000/svg">
<path d="M11.3333 0C6.36334 0 2.33334 4.03 2.33334 9H1.71796C0.831272 9 0.383219 10.0684 1.00468 10.7009L3.29334 13.03L5.62112 10.708C6.25229 10.0784 5.8064 9 4.91489 9H4.33334C4.33334 5.13 7.46334 2 11.3333 2C15.2033 2 18.3333 5.13 18.3333 9C18.3333 12.87 15.2033 16 11.3333 16C9.76401 16 8.31369 15.4777 7.14904 14.5997C6.7068 14.2663 6.07356 14.2598 5.68194 14.6514C5.29142 15.0419 5.28682 15.6816 5.71768 16.0271C7.25644 17.261 9.20343 18 11.3333 18C16.3033 18 20.3333 13.97 20.3333 9C20.3333 4.03 16.3033 0 11.3333 0ZM11.0833 5C10.6691 5 10.3333 5.33579 10.3333 5.75V10L14.0084 12.181C14.3426 12.3793 14.7743 12.2695 14.973 11.9355C15.172 11.6012 15.0621 11.1688 14.7276 10.97L13.5833 10.29L11.8333 9.25V5.75C11.8333 5.33579 11.4976 5 11.0833 5Z" fill="#C7BDC9"/>
</svg>
