<svg viewBox="0 0 15 15" xmlns="http://www.w3.org/2000/svg">
<path d="M7.08333 14.1667C3.17132 14.1667 0 10.9954 0 7.08333C0 3.17132 3.17132 0 7.08333 0C10.9954 0 14.1667 3.17132 14.1667 7.08333C14.1624 10.9936 10.9936 14.1624 7.08333 14.1667ZM7.08333 1.41667C3.95372 1.41667 1.41667 3.95372 1.41667 7.08333C1.41667 10.2129 3.95372 12.75 7.08333 12.75C10.2129 12.75 12.75 10.2129 12.75 7.08333C12.7465 3.95518 10.2115 1.42018 7.08333 1.41667ZM10.625 7.79167H6.375V3.54167H7.79167V6.375H10.625V7.79167Z" />
</svg>