<svg width="24" height="25" viewBox="0 0 24 25" fill="none" xmlns="http://www.w3.org/2000/svg">
<path fill-rule="evenodd" clip-rule="evenodd" d="M13 3.5H21C21.2652 3.5 21.5196 3.60536 21.7071 3.79289C21.8946 3.98043 22 4.23478 22 4.5V14.5C22 15.2956 21.6839 16.0587 21.1213 16.6213C20.5587 17.1839 19.7957 17.5 19 17.5H14.41L16.71 19.79C16.8037 19.883 16.8781 19.9936 16.9289 20.1154C16.9797 20.2373 17.0058 20.368 17.0058 20.5C17.0058 20.632 16.9797 20.7627 16.9289 20.8846C16.8781 21.0064 16.8037 21.117 16.71 21.21C16.617 21.3037 16.5064 21.3781 16.3846 21.4289C16.2627 21.4797 16.132 21.5058 16 21.5058C15.868 21.5058 15.7373 21.4797 15.6154 21.4289C15.4936 21.3781 15.383 21.3037 15.29 21.21L13 18.91V20.5C13 20.7652 12.8946 21.0196 12.7071 21.2071C12.5196 21.3946 12.2652 21.5 12 21.5C11.7348 21.5 11.4804 21.3946 11.2929 21.2071C11.1054 21.0196 11 20.7652 11 20.5V18.91L8.71 21.21C8.61704 21.3037 8.50644 21.3781 8.38458 21.4289C8.26272 21.4797 8.13201 21.5058 8 21.5058C7.86799 21.5058 7.73728 21.4797 7.61542 21.4289C7.49356 21.3781 7.38296 21.3037 7.29 21.21C7.19627 21.117 7.12188 21.0064 7.07111 20.8846C7.02034 20.7627 6.9942 20.632 6.9942 20.5C6.9942 20.368 7.02034 20.2373 7.07111 20.1154C7.12188 19.9936 7.19627 19.883 7.29 19.79L9.59 17.5H5C4.20435 17.5 3.44129 17.1839 2.87868 16.6213C2.31607 16.0587 2 15.2956 2 14.5V4.5C2 4.23478 2.10536 3.98043 2.29289 3.79289C2.48043 3.60536 2.73478 3.5 3 3.5H11H13ZM19.7071 15.2071C19.8946 15.0196 20 14.7652 20 14.5V5.5H4V14.5C4 14.7652 4.10536 15.0196 4.29289 15.2071C4.48043 15.3946 4.73478 15.5 5 15.5H19C19.2652 15.5 19.5196 15.3946 19.7071 15.2071Z" fill="#2E2836"/>
</svg>
