<svg viewBox="0 0 1366 768" fill="none" xmlns="http://www.w3.org/2000/svg">
<g clip-path="url(#clip0)">
<path d="M1418.25 769.358H1367.48C1364.76 767.054 1369.36 761.827 1374.17 761.478C1376.26 761.319 1378.9 761.756 1381.92 762.392C1382.62 753.138 1386.61 711.526 1401.64 713.198C1418.55 715.07 1401.64 731.521 1396.87 741.262C1393.32 748.475 1389.59 758.821 1387.88 763.705C1389.25 764.002 1390.67 764.29 1392.12 764.556C1394.37 757.693 1402.7 734.609 1413.31 735.953C1425.76 737.528 1420.75 746.782 1411.93 752.276C1405.45 756.318 1397.5 762.058 1393.73 764.833C1396.93 765.356 1400.27 765.705 1403.66 765.628C1412.36 765.428 1416.6 767.983 1418.25 769.358Z" fill="#82B378"/>
<path d="M413.114 767.864C413.114 767.864 269.352 613.811 388.803 447.03C494.786 299.046 618.352 309.163 709.011 369.216C747.626 394.792 858.951 372.371 953.699 221.79C1082.91 16.4423 1530.82 140.987 1449.15 456.917C1409.63 609.805 1569.43 615.363 1488.01 768.187L413.114 767.864Z" fill="#FFF1E6"/>
<path d="M413.114 767.864C413.114 767.864 269.352 613.811 388.803 447.03C494.786 299.046 618.352 309.163 709.011 369.216C747.626 394.792 858.951 372.371 953.699 221.79C1082.91 16.4423 1530.82 140.987 1449.15 456.917C1409.63 609.805 1569.43 615.363 1488.01 768.187L413.114 767.864Z" fill="#EBF3FA"/>
<path d="M1319.76 767.557C1317.74 764.397 1311.67 756.2 1303.59 757.283C1294.78 758.462 1313.31 764.254 1318.98 767.583C1317.72 767.598 1316.64 767.501 1315.85 767.219C1312.05 765.87 1305.56 768.455 1303.48 769.363H1339.59C1339.34 768.501 1338.69 767.096 1337.01 766.07C1336.42 765.711 1335.22 765.659 1333.69 765.772C1335.84 763.248 1337.33 755.185 1331.35 757.257C1326.98 758.775 1326.99 763.7 1327.42 766.619C1326.49 766.762 1325.55 766.911 1324.62 767.044C1322.82 757.903 1316.46 731.121 1303.58 730.403C1290.51 729.68 1314.66 758.18 1322.7 767.296C1321.66 767.419 1320.67 767.511 1319.76 767.557Z" fill="#FBC387"/>
<path d="M657.75 282.649C656.472 281.261 653.613 279.689 649.845 278.404C656.457 275.434 662.088 271.937 658.197 269.802C656.513 268.875 654.506 269.008 652.386 269.776C655.646 266.489 657.211 263.663 654.034 262.92C649.209 261.794 644.184 267.994 640.678 273.714C642.952 268.809 644.122 263.949 639.882 263.878C634.995 263.796 634.041 270.263 634.123 275.859C633.717 275.859 633.312 275.869 632.906 275.885C631.531 269.7 628.856 262.004 624.303 264.057C622.009 265.091 622.091 267.314 623.292 269.879C621.136 268.23 619.006 267.662 617.317 269.408C614.741 272.07 617.908 275.224 622.101 277.866C619.134 278.942 616.327 280.498 613.847 282.659C599.619 295.055 615.131 323.125 615.131 323.125L655.759 322.085C668.499 301.86 662.36 287.646 657.75 282.649Z" fill="#2C3A64"/>
<path d="M616.311 475.868L592.048 478.919C576.094 480.926 561.67 471.751 560.002 458.53L550.773 385.484C549.1 372.264 556.086 361.844 572.126 361.189C581.633 360.799 597.494 358.71 614.561 353.047C629.693 348.024 631.387 361.921 633.055 375.141L642.285 448.187C643.953 461.403 632.265 473.86 616.311 475.868Z" fill="#2B478B"/>
<path d="M584.225 771.564C584.225 771.564 584.225 763.781 585.338 761.19C586.452 758.599 590.528 748.062 590.528 748.062H606.466C606.466 748.062 609.433 757.677 609.618 760.821C609.802 763.965 609.618 771.564 609.618 771.564H584.225Z" fill="#233862"/>
<path d="M685.433 771.564C685.433 771.564 685.433 763.781 684.319 761.19C683.205 758.599 679.129 748.062 679.129 748.062H663.191C663.191 748.062 660.224 757.677 660.04 760.821C659.855 763.965 660.04 771.564 660.04 771.564H685.433Z" fill="#233862"/>
<path d="M621.573 334.666C621.573 334.666 621.013 351.998 618.786 359.765L601.185 372.013L667.442 381.905L651.642 360.124C651.642 360.124 646.874 336.883 649.373 328.286C651.878 319.689 621.573 334.666 621.573 334.666Z" fill="#B56F40"/>
<path d="M621.475 337.062C621.475 337.057 626.716 349.643 636.587 349.366C646.458 349.09 648.701 337.958 648.701 337.958L621.475 337.062Z" fill="#99592E"/>
<path d="M635.452 344.502C628.302 344.374 615.141 334.876 615.141 323.114V304.758C615.141 300.462 618.144 296.95 621.814 296.95H649.096C652.766 296.95 655.769 300.462 655.769 304.758V322.075C655.769 334.41 643.655 344.645 635.452 344.502Z" fill="#B56F40"/>
<path d="M586.222 501.991C586.222 501.991 589.009 586.937 584.841 635.41C580.673 683.879 584.872 751.333 584.872 751.333C584.872 751.333 598.207 758.671 612.667 751.333C612.667 751.333 628.523 657.694 628.42 635.41C628.313 611.678 645.678 505.698 645.678 505.698L586.222 501.991Z" fill="#EE9849"/>
<path d="M684.853 751.328C684.853 751.328 671.517 758.666 657.063 751.328C657.063 751.328 641.212 657.694 641.309 635.405C641.355 625.385 638.286 600.685 634.718 575.503C629.842 541.054 624.047 505.693 624.047 505.693L685.808 501.843C685.808 501.843 680.716 586.937 684.884 635.4C689.057 683.879 684.853 751.328 684.853 751.328Z" fill="#EE9849"/>
<path d="M674.166 364.235V364.271C666.148 362.259 658.607 360.933 651.642 360.124C645.492 368.27 641.078 370.164 635.457 372.382C626.413 371.132 618.79 360.016 618.79 359.765C605.655 361.107 598.222 363.866 598.222 363.866C593.223 365.956 586.663 404.911 585.641 426.549C585.513 429.268 585.472 431.705 585.528 433.768C586.062 452.329 586.812 470.363 584.415 490.342C581.263 516.594 586.601 516.128 586.601 516.128C586.601 516.128 593.787 517.531 603.807 518.857C612.872 520.066 624.252 521.213 634.728 521.213C658.751 521.213 685.078 516.128 685.078 516.128C692.655 516.22 682.953 469.088 681.537 440.727C681.208 434.142 680.9 428.126 680.618 422.637C689.719 430.461 716.503 444.716 717.114 446.533C717.114 446.533 711.267 457.173 709.491 462.847C702.674 484.628 690.945 499.026 690.945 499.026C692.542 505.068 692.095 507.746 692.095 507.746C710.646 493.21 722.606 480.839 730.239 471.356C740.972 458.018 743.174 450.368 743.174 450.368C701.863 366.503 674.166 364.235 674.166 364.235Z" fill="#A53D38"/>
<path d="M603.802 518.852C593.783 517.526 586.596 516.123 586.596 516.123C586.596 516.123 581.258 516.589 584.41 490.337C586.807 470.358 586.057 452.319 585.524 433.764C585.462 431.7 585.508 429.258 585.636 426.544C587.171 428.997 604.274 456.549 608.879 477.03C612.231 491.966 607.175 509.559 603.802 518.852Z" fill="#912F2F"/>
<path d="M641.314 635.405C641.361 625.385 638.291 600.685 634.724 575.503C638.419 560.46 647.428 545.985 647.428 545.985C658.828 577.879 641.314 635.405 641.314 635.405Z" fill="#E58638"/>
<path d="M690.94 499.026C690.94 499.026 680.931 489.784 676.855 494.961C672.78 500.138 672.035 508.274 675.187 507.716C678.339 507.163 684.827 504.203 685.751 505.683C686.68 507.163 690.828 509.989 692.09 507.741C693.348 505.498 690.94 499.026 690.94 499.026Z" fill="#B56F40"/>
<path d="M690.94 499.027C692.537 505.069 692.09 507.747 692.09 507.747C710.641 493.21 722.601 480.84 730.234 471.357C724.48 470.932 719.157 469.647 709.486 462.847C701.499 487.138 690.94 499.027 690.94 499.027Z" fill="#B56F40"/>
<path d="M714.794 444.654C713.31 443.42 689.519 430.358 680.51 422.55C680.51 422.55 689.503 415.827 695.062 425.627C700.621 435.428 714.794 444.654 714.794 444.654Z" fill="#912F2F"/>
<path d="M743.164 450.364C743.164 450.364 740.962 458.013 730.229 471.352C717.812 471.183 743.164 450.364 743.164 450.364Z" fill="#912F2F"/>
<path d="M615.141 312.203C615.141 312.203 620.105 297.088 636.366 299.448C652.628 301.804 654.039 305.27 655.764 309.295C657.494 313.314 660.83 294.594 660.83 294.594L641.648 288.911C641.648 288.911 618.437 291.548 616.768 295.429C615.1 299.31 615.1 299.31 615.1 299.31L615.141 312.203Z" fill="#2C3A64"/>
<path d="M585.795 473.225L586.073 460.343C604.48 446.4 611.964 429.882 612.672 401.306C613.211 379.637 605.912 361.967 605.86 361.788C605.86 361.788 609.115 361.009 610.223 360.82C611.419 360.615 615.079 360.195 615.079 360.195C615.3 360.953 620.151 378.567 619.622 401.28C618.914 431.731 605.727 458.131 585.795 473.225Z" fill="#2B478B"/>
<path d="M636.823 469.498C630.607 470.43 598.751 477.803 576.048 480.665C563.251 482.273 553.36 482.458 552.595 479.242C550.485 470.322 557.667 413.498 569.087 390.625C580.503 367.748 601.667 362.812 601.667 362.812L607.688 399.028L577.085 459.826L584.538 459.959L635.678 460.865L636.823 469.498Z" fill="#A53D38"/>
<path d="M652.859 472.734H641.345C639.949 472.734 638.81 471.597 638.81 470.204V449.431C638.81 448.039 639.949 446.902 641.345 446.902H652.859C654.25 446.902 655.394 448.039 655.394 449.431V470.204C655.394 471.597 654.25 472.734 652.859 472.734Z" fill="#233862"/>
<path d="M652.859 474.813H641.345C639.949 474.813 638.81 473.676 638.81 472.283V451.51C638.81 450.117 639.949 448.981 641.345 448.981H652.859C654.25 448.981 655.394 450.117 655.394 451.51V472.283C655.394 473.676 654.25 474.813 652.859 474.813Z" fill="#2B478B"/>
<path d="M629.698 462.857C629.698 462.857 646.524 451.29 652.037 455.309C657.555 459.324 657.991 468.899 635.119 469.687L629.698 462.857Z" fill="#B56F40"/>
<path d="M636.823 469.498C630.607 470.43 598.751 477.803 576.048 480.665C578.034 471.003 581.165 464.429 584.538 459.954L635.678 460.86L636.823 469.498Z" fill="#B56F40"/>
<path d="M653.279 313.857C652.417 312.807 650.995 312.203 649.383 312.203H641.191C639.636 312.203 638.547 312.648 637.957 313.529C637.685 313.939 637.547 314.405 637.495 314.886C636.12 314.543 634.785 314.717 633.856 314.947C633.81 314.446 633.671 313.954 633.389 313.529C632.804 312.648 631.71 312.203 630.155 312.203H621.963C620.346 312.203 618.924 312.807 618.067 313.857C617.286 314.809 617.02 316.053 617.302 317.451C618.236 322.07 623.564 322.658 626.228 322.658C627.049 322.658 627.619 322.602 627.722 322.592C630.217 322.587 631.967 321.168 633.245 318.132C633.461 317.615 633.81 316.637 633.866 315.623C634.749 315.388 636.109 315.173 637.475 315.552C637.516 316.596 637.875 317.605 638.096 318.132C639.369 321.168 641.124 322.587 643.619 322.592C643.727 322.602 644.291 322.658 645.113 322.658C647.777 322.658 653.105 322.07 654.039 317.451C654.326 316.048 654.065 314.809 653.279 313.857ZM632.752 317.917C631.572 320.738 629.97 322.049 627.712 322.049H627.681C627.66 322.049 625.453 322.305 623.138 321.839C620.099 321.22 618.313 319.709 617.836 317.339C617.584 316.105 617.81 315.014 618.488 314.19C619.247 313.263 620.515 312.735 621.968 312.735H630.16C631.525 312.735 632.465 313.099 632.942 313.821C633.189 314.195 633.302 314.635 633.327 315.091C632.911 315.224 632.644 315.342 632.609 315.357C632.444 315.429 632.378 315.623 632.449 315.782C632.506 315.9 632.619 315.971 632.742 315.971C632.788 315.971 632.829 315.961 632.875 315.941C632.881 315.936 633.045 315.864 633.312 315.772C633.224 316.699 632.901 317.559 632.752 317.917ZM653.515 317.344C653.038 319.709 651.252 321.225 648.213 321.844C645.898 322.315 643.691 322.059 643.67 322.054H643.639C641.386 322.054 639.785 320.743 638.599 317.922C638.445 317.554 638.111 316.668 638.034 315.731C638.188 315.792 638.347 315.864 638.501 315.946C638.66 316.028 638.855 315.971 638.938 315.813C639.02 315.654 638.963 315.459 638.804 315.377C638.547 315.244 638.291 315.137 638.029 315.05C638.06 314.615 638.173 314.19 638.409 313.836C638.891 313.114 639.826 312.751 641.191 312.751H649.383C650.836 312.751 652.104 313.283 652.864 314.205C653.541 315.019 653.767 316.11 653.515 317.344Z" fill="#2C3A64"/>
<path d="M628.913 332.638C628.913 332.638 637.911 331.66 642.1 332.638C642.1 332.638 639.872 336.284 636.217 336.284C632.563 336.279 629.801 334.947 628.913 332.638Z" fill="#FFF0E6"/>
<path d="M1042.1 303.833C1037.71 302.394 1032.95 303.096 1029.69 303.956C1030.36 302.911 1031.97 302.256 1031.97 302.256C1029.86 302.363 1025.71 305.308 1025.71 305.308C995.037 300.09 999.01 342.793 1001.57 352.383C1004.13 361.974 989.313 389.777 979.094 403.34C950.41 441.399 996.274 481.035 996.274 481.035C1033.45 512.182 1016.56 451.783 1016.56 451.783C1014.25 444.082 1042.19 395.368 1058.62 379.157C1061.86 371.462 1061.08 359.168 1061.02 358.205C1062.14 367.847 1061.59 373.494 1060.74 376.781C1073.79 358.83 1053.73 307.648 1042.1 303.833Z" fill="#163560"/>
<path d="M1118.43 444.154C1118.43 448.281 1116.35 453.565 1113.38 459.008C1105.98 472.572 1093.05 487.118 1093.05 487.118L1085.56 476.473C1085.56 476.473 1090.11 465.198 1093.13 455.9C1094.95 450.309 1096.21 445.439 1095.6 444.154C1093.96 440.734 1061.51 402.444 1061.51 402.444L1052.69 372.818C1052.69 372.818 1074.27 373.955 1083.47 387.38C1092.66 400.811 1118.43 433.038 1118.43 444.154Z" fill="#FFB93E"/>
<path d="M1113.37 459.008C1105.98 472.572 1093.05 487.118 1093.05 487.118L1085.55 476.473C1085.55 476.473 1090.11 465.199 1093.13 455.9C1096.77 458.046 1103.06 460.089 1113.37 459.008Z" fill="#FFB27D"/>
<path d="M1023.68 711.171L1031.45 743.798L1043.08 743.731L1043.51 711.171H1023.68Z" fill="#FFB27D"/>
<path d="M1121.52 712.564L1143.62 743.798L1152.23 732.769L1138.94 708.268L1121.52 712.564Z" fill="#FFB27D"/>
<path d="M1054.24 382.388C1054.33 382.429 1044.91 387.314 1037.82 385.378C1031.15 383.566 1026.79 374.938 1026.89 374.923C1029.71 374.365 1030.53 370.494 1030.46 353.858L1031.74 354.109L1053.21 358.348C1053.21 358.348 1052.72 365.087 1052.71 371.436C1052.69 376.766 1053.01 381.82 1054.24 382.388Z" fill="#FFB27D"/>
<path d="M1019.8 315.441C1019.8 315.441 1027.95 302.328 1043.1 310.167C1043.1 310.167 1035.25 310.382 1019.8 315.441Z" fill="#5FABB7"/>
<path d="M1053.21 358.348C1053.21 358.348 1052.72 365.087 1052.71 371.436C1040.69 371.098 1034.35 360.166 1031.74 354.109L1053.21 358.348Z" fill="#EF9E67"/>
<path d="M1027.32 354.856C1027.32 354.856 1019.19 346.372 1016.03 338.354C1013.77 332.629 1012.36 310.013 1035.17 308.723C1035.17 308.723 1041.73 308.062 1048.61 310.924C1054.08 313.198 1062.44 318.804 1058.55 339.572L1057.84 346.464L1027.32 354.856Z" fill="#163560"/>
<path d="M1150.16 725.631C1150.16 725.631 1144.45 726.614 1139.77 726.967C1138.73 727.044 1137.75 727.09 1136.88 727.09C1134.63 727.09 1130.56 726.245 1127.83 725.611L1127.63 725.564C1126.43 725.283 1125.52 725.052 1125.17 724.96L1125.03 724.924C1125.03 724.924 1096.58 693.327 1080.62 642.683C1080.26 641.5 1079.86 640.312 1079.44 639.109C1070.71 613.707 1052.6 581.823 1043.06 552.96C1041.54 548.367 1040.18 544.035 1038.95 539.944C1038.56 538.633 1038.18 537.348 1037.82 536.078C1030.78 511.706 1028.75 495.71 1026.87 478.614L1084.24 493.17C1084.25 493.17 1108.33 597.322 1150.16 725.631Z" fill="#A53D38"/>
<path d="M1056.96 361.733C1056.96 361.733 1029.2 367.79 1025.68 350.484C1022.16 333.177 1016.21 322.302 1033.79 317.704C1051.37 313.101 1056.16 319.009 1058.75 324.498C1061.33 329.992 1064.1 359.711 1056.96 361.733Z" fill="#FFB27D"/>
<path d="M1046.39 314.729C1046.39 314.729 1042.87 336.572 1031.77 341.928C1020.67 347.283 1014.96 345.179 1014.96 345.179C1014.96 345.179 1022.5 336.259 1021.85 323.464C1021.86 323.464 1038.69 306.219 1046.39 314.729Z" fill="#163560"/>
<path d="M1044.84 316.756C1044.84 316.756 1051.45 320.146 1053.73 324.273C1056.01 328.4 1058.47 337.35 1061.05 336.51C1061.05 336.51 1064.01 321.549 1055.98 315.041C1047.46 308.139 1044.84 316.756 1044.84 316.756Z" fill="#163560"/>
<path d="M1031.06 741.975C1031.06 741.975 1031.99 748.437 1029.58 755.349C1029.58 755.349 1027.68 764.002 1036.22 764.161C1044.76 764.32 1046.86 763.516 1045.89 758.211C1044.92 752.907 1043.08 743.731 1043.08 743.731L1031.06 741.975Z" fill="#FFB27D"/>
<path d="M1029.58 755.349C1029.58 755.349 1027.68 764.438 1028.65 768.78C1028.65 768.78 1031.54 769.788 1037.74 769.788C1043.63 769.788 1047.09 768.78 1047.09 768.78C1047.09 768.78 1046.87 758.908 1045.3 755.129C1045.3 755.129 1039.25 764.192 1029.58 755.349Z" fill="#C45446"/>
<path d="M1172.82 759.082C1172.82 759.082 1157.07 741.642 1152.24 732.769L1140.52 738.755L1166.7 763.281L1172.82 762.477L1172.82 759.082Z" fill="#FFB27D"/>
<path d="M1182.82 769.302C1182.82 769.302 1165.9 769.302 1163 768.979C1160.1 768.662 1157.76 764.479 1154.62 758.206C1153.33 755.641 1150.44 754.228 1147.48 753.449L1147.54 768.78H1142.88L1138.78 752.538C1135.98 747.423 1138.56 742.789 1140.52 738.754C1142.8 738.749 1148.94 740.306 1160.58 753.383C1164.4 757.674 1168.63 759.21 1172.81 759.082C1172.87 759.123 1172.93 759.148 1172.99 759.174C1182.66 763.511 1182.82 769.302 1182.82 769.302Z" fill="#C45446"/>
<path d="M1139.77 726.968C1138.73 727.044 1137.75 727.091 1136.88 727.091C1134.63 727.091 1130.56 726.246 1127.83 725.611L1127.63 725.565L1125.17 724.961L1125.03 724.925C1125.03 724.925 1096.58 693.327 1080.62 642.683C1080.26 641.5 1079.86 640.312 1079.44 639.109C1070.71 613.707 1052.6 581.823 1043.06 552.96C1041.54 548.367 1040.18 544.036 1038.95 539.944C1038.56 538.634 1038.18 537.348 1037.82 536.079L1047.96 528.398C1047.96 528.398 1078.42 577.599 1087.85 623.902C1095.67 662.278 1129.33 712.037 1139.77 726.968Z" fill="#912F2F"/>
<path d="M1049.03 628.218C1049.21 650.732 1048.06 702.498 1045.12 723.937C1045.12 723.937 1042.34 726.394 1035.42 726.425C1028.34 726.456 1025.18 723.849 1025.18 723.849C1017.8 686.584 1012.56 655.755 1008.74 629.186C1005.6 607.384 1002.82 588.69 1000.68 572.596C998.778 558.337 997.387 546.12 996.72 535.582C996.632 534.153 996.55 532.751 996.489 531.389C996.407 529.581 996.34 527.83 996.309 526.13C996.278 524.415 996.268 522.751 996.283 521.133L996.53 521.112L1010.78 519.73L1055.81 515.347C1055.05 554.793 1048.93 615.131 1049.03 628.218Z" fill="#A53D38"/>
<path d="M1035.42 726.42C1029.4 726.768 1025.17 723.844 1025.17 723.844C1017.8 686.579 1012.55 655.75 1008.73 629.18C1005.6 607.378 1002.81 588.684 1000.67 572.591C998.774 558.331 997.383 546.114 996.715 535.577C996.638 530.385 996.582 525.413 996.52 521.102C996.454 516.729 996.387 513.032 996.264 510.457L1010.77 519.719L1026.04 529.458C1026.04 529.458 1004.38 549.104 1009.7 586.247C1015.02 623.389 1028.02 721.161 1035.42 726.42Z" fill="#912F2F"/>
<path d="M1092.17 525.418C1074.9 529.898 994.287 538.736 993.589 518.598C993.415 513.682 993.589 507.753 993.979 501.332C995.18 481.44 998.455 456.852 1000.03 443.33C1000.74 437.129 998.353 409.357 1000.19 394.226C1000.46 391.984 1000.82 390.017 1001.3 388.44C1004.78 377.022 1020.43 373.924 1028.46 373.653L1052.7 372.829C1052.7 372.829 1077.72 400.714 1081.2 409.28C1084.68 417.846 1085.82 447.175 1088.53 461.374C1091.23 475.572 1100.57 523.242 1092.17 525.418Z" fill="#FFB93E"/>
<path d="M1044.56 457.354C1044.56 457.354 1031.09 498.629 993.979 501.327C995.18 481.435 998.455 456.847 1000.03 443.325C1000.74 437.124 998.352 409.352 1000.19 394.221C1000.67 394.324 1001.11 394.59 1001.62 394.687C1042.48 402.562 1048.27 448.752 1044.56 457.354Z" fill="#FFA412"/>
<path d="M1077.46 415.707L1034.42 411.135L1027.45 476.475L1070.49 481.047L1077.46 415.707Z" fill="#2B478B"/>
<path d="M1034.4 411.134L1031.64 410.913L1025.16 476.202L1027.43 476.473L1034.4 411.134Z" fill="#163560"/>
<path d="M998.111 440.058C998.111 440.058 1028.48 449.315 1057.5 453.452C1057.5 453.452 1067.07 457.584 1062.58 458.716C1061.43 459.008 1003.31 471.645 994.693 463.447L998.111 440.058Z" fill="#FFB27D"/>
<path d="M1028.46 373.648C1028.46 373.648 1012.49 373.735 1005.68 381.492C993.23 395.655 990.771 455.885 994.693 463.447C996.382 466.699 1009.34 466.965 1014.8 451.215C1017.63 443.043 1030.01 388.502 1028.46 373.648Z" fill="#FFB93E"/>
<path d="M1054.64 453.033C1054.64 453.033 1058.2 452.7 1058.88 451.563C1060.24 449.29 1062.38 449.315 1064.16 449.018C1065.94 448.716 1067.95 446.77 1068.3 447.16C1068.65 447.554 1066.99 449.699 1066.05 450.503C1066.05 450.503 1067.97 450.621 1069.23 450.017C1070.5 449.413 1074.36 444.436 1074.97 446.53C1076.57 452.039 1074.91 457.334 1070.48 457.764C1065.7 458.23 1053.84 460.513 1053.84 460.513L1054.64 453.033Z" fill="#FFB27D"/>
<path d="M877.249 301.65C873.266 295.613 857.441 298.993 841.908 309.197C826.376 319.402 817.013 332.566 820.996 338.603C824.985 344.64 840.805 341.26 856.337 331.056C871.875 320.856 881.232 307.687 877.249 301.65Z" fill="#233862"/>
<path d="M796.096 525.949L799.16 526.133C799.135 526.066 800.351 472.708 805.048 451.121C813.789 410.901 836.637 379.411 836.888 379.145L831.396 377.389C831.124 377.681 826.791 384.373 820.657 396.728C815.001 408.111 805.91 427.076 801.896 449.16C797.934 470.967 795.983 525.662 796.096 525.949Z" fill="#BC3F3F"/>
<path d="M851.522 301.179C851.522 301.179 831.478 296.914 821.853 313.176C812.234 329.438 811.7 357.697 805.284 366.939C798.868 376.181 787.554 415.192 799.581 423.922C811.608 432.652 885.703 423.605 889.861 419.621C894.019 415.643 889.609 374.675 882.372 362.807C875.129 350.943 892.771 295.132 851.522 301.179Z" fill="#A53D38"/>
<path d="M881.386 479.195C904.069 473.435 929 438.336 929 438.336L922.615 432.811C916.003 440.588 888.511 453.978 888.511 453.978C888.66 446.861 888.47 440.373 888.023 434.465C884.974 394.311 869.801 380.937 865.659 377.998C864.991 377.522 864.606 377.322 864.606 377.322C864.606 377.322 864.591 377.614 864.565 378.167C864.504 379.36 864.396 381.767 864.283 385.064C863.436 409.636 862.43 484.008 881.386 479.195Z" fill="#FFB27D"/>
<path d="M922.615 432.811C922.712 431.864 923.349 418.07 926.095 415.443C928.841 412.816 934.267 409.242 935.822 409.529C937.383 409.821 942.675 418.602 940.175 424.654C937.675 430.706 928.995 438.341 928.995 438.341L922.615 432.811Z" fill="#FFB27D"/>
<path d="M831.996 712.634C833.377 718.113 834.896 723.33 836.447 728.189C836.78 729.229 837.104 730.253 837.437 731.256C837.601 731.753 837.771 732.245 837.93 732.731C838.259 733.694 838.577 734.636 838.9 735.557C839.321 736.761 839.737 737.933 840.153 739.065C840.455 739.905 840.758 740.729 841.056 741.538C845.655 753.842 849.51 761.64 849.51 761.64L858.673 761.01C858.673 761.01 855.233 744.682 854.546 721.297C854.525 720.463 854.499 719.623 854.484 718.768C854.448 716.955 854.428 715.107 854.428 713.218C854.428 712.444 854.433 711.661 854.438 710.873C854.623 690.729 857.122 666.925 865.099 644.196C871.587 625.717 876.289 608.431 879.687 592.809C890.662 542.374 888.085 509.241 888.085 509.241L836.529 515.258L834.126 515.539C833.906 539.159 833.3 571.232 832.766 596.306C832.674 600.659 832.587 604.801 832.504 608.651C832.15 624.75 831.878 635.758 831.878 635.758C821.956 657.043 825.559 687.099 831.996 712.634Z" fill="#FFB27D"/>
<path d="M807.393 503.465C817.136 481.668 821.797 475.504 821.961 468.648C822.089 463.225 819.41 457.373 814.2 443.026C812.973 439.646 812.126 436.17 811.608 432.652C807.491 404.987 823.527 375.085 833.49 373.047C836.262 372.315 840.963 362.325 840.907 346.227L842.154 346.473L863.143 350.62C863.143 350.62 862.666 357.21 862.65 363.416C862.635 368.587 862.917 373.851 864.093 374.465C865.602 374.603 882.079 377.537 885.077 382.253C888.023 386.892 884.738 387.317 885.888 404.193C887.417 426.738 871.49 453.461 885.616 498.514C900.045 544.53 802.009 515.513 807.393 503.465Z" fill="#FFB27D"/>
<path d="M863.144 350.615C863.144 350.615 862.666 357.205 862.651 363.411C850.907 363.078 844.701 352.392 842.155 346.473L863.144 350.615Z" fill="#EF9E67"/>
<path d="M867.065 356.493C867.065 356.493 839.28 356.949 839.26 339.683C839.239 322.418 835.641 310.851 853.381 309.827C871.12 308.803 874.575 315.387 875.986 321.153C877.403 326.913 874.293 355.93 867.065 356.493Z" fill="#FFB27D"/>
<path d="M866.039 309.407C866.039 309.407 858.432 329.663 846.754 332.658C835.076 335.654 830.015 332.53 830.015 332.53C830.015 332.53 838.972 325.434 840.83 313.048C840.83 313.048 860.3 299.766 866.039 309.407Z" fill="#A53D38"/>
<path d="M864.155 311.051C864.155 311.051 869.837 315.572 871.223 319.97C872.609 324.369 873.23 333.416 875.879 333.109C875.879 333.109 881.612 319.34 875.17 311.553C868.333 303.294 864.155 311.051 864.155 311.051Z" fill="#A53D38"/>
<path d="M771.257 526.619L779.598 529.113C779.598 529.113 807.117 483.568 809.616 471.72C810.433 467.859 812.434 460.143 814.77 451.49C819.6 433.574 825.837 411.659 825.837 411.659L827.89 402.786L834.897 372.525C834.897 372.525 821.484 373.892 813.641 377.164C811.043 378.244 809.062 379.534 808.369 381.05C802.605 393.692 796.851 425.591 792.806 448.351C790.552 461.034 788.833 470.88 787.935 472.964C785.435 478.791 777.787 510.818 771.257 526.619Z" fill="#FFB27D"/>
<path d="M865.207 311.737C865.207 311.737 859.786 332.95 845.055 339.74C845.055 339.74 859.786 326.709 861.039 312.705C862.291 298.706 865.207 311.737 865.207 311.737Z" fill="#A53D38"/>
<path d="M802.42 708.205C805.387 739.761 818.44 760.171 818.44 760.171L822.895 764.216C822.895 764.216 826.956 741.108 829.887 714.656C832.679 689.516 836.508 662.906 840.84 654.785C847.313 642.65 852.087 617.832 855.521 591.616C861.198 548.232 863.21 500.992 863.21 500.992L810.935 498.407C805.674 507.224 803.39 521.684 802.846 538.125C802.271 555.411 803.636 574.893 805.53 592.302C808.174 616.675 811.854 636.987 812.711 641.554C812.711 641.559 812.711 641.564 812.717 641.575C812.829 642.174 812.655 642.778 812.373 643.321C801.968 663.858 800.464 687.355 802.42 708.205Z" fill="#FFB27D"/>
<path d="M901.523 459.083C900.712 469.687 896.718 483.958 881.396 486.185C875.976 486.973 872.1 482.094 869.349 473.973C865.751 463.364 864.083 447.225 863.421 430.998C862.784 415.633 863.046 400.174 863.421 389.258C869.708 388.551 881.242 383.237 884.779 381.916C884.882 382.023 884.984 382.136 885.072 382.248C885.143 382.335 885.215 382.422 885.282 382.515C885.405 382.684 885.508 382.853 885.595 383.021C887.125 385.92 887.351 402.166 888.105 417.501C888.762 430.922 889.83 443.646 892.53 446.139C893.757 447.26 901.292 447.296 901.292 447.296C901.292 447.296 902.031 452.483 901.523 459.083Z" fill="#FFB93E"/>
<path d="M863.42 431.009C864.596 459.651 868.892 488.018 881.391 486.19C896.713 483.957 900.707 469.692 901.523 459.083C897.76 458.894 891.139 457.977 888.505 453.973C884.738 448.238 872.978 411.342 872.978 411.342C872.978 411.342 868.358 419.626 863.42 431.009Z" fill="#FFA412"/>
<path d="M879.687 469.912C879.687 469.912 848.935 477.608 821.961 468.648C821.961 468.648 807.153 500.014 803.077 513.46C799.001 526.901 768.224 698.963 768.224 698.963C768.224 698.963 835.964 718.507 880.981 701.63C880.981 701.63 894.25 517.685 888.347 498.412C882.444 479.134 879.687 469.912 879.687 469.912Z" fill="#2B478B"/>
<path d="M888.11 417.384C885.862 439.559 879.687 469.636 879.687 469.636C876.284 471.433 872.814 472.749 869.349 473.686C845.455 480.163 821.966 468.376 821.966 468.376C821.966 468.376 821.93 467.69 821.869 466.861C821.822 466.175 821.751 465.407 821.668 464.833C821.494 463.579 815.822 450.118 815.822 450.118C815.822 450.118 815.606 451.167 815.232 452.954C813.158 462.795 806.044 495.135 801.68 498.048C799.15 499.728 791.065 499.753 783.474 497.69C775.574 495.55 768.218 491.136 768.218 483.963C768.218 474.782 784.957 433.262 797.015 404.813C797.02 404.783 797.025 404.772 797.025 404.772C803.446 389.606 807.173 379.053 812.085 377.875C812.085 377.875 845.116 391.285 863.415 389.227C869.703 388.521 881.237 383.226 884.774 381.905C884.877 382.013 884.979 382.125 885.067 382.233C885.138 382.32 885.21 382.407 885.277 382.499C885.349 382.596 885.41 382.694 885.472 382.791C888.151 386.734 887.731 393.267 887.869 395.761C888.136 400.645 889.117 407.46 888.11 417.384Z" fill="#FFB93E"/>
<path d="M815.822 450.343C815.822 450.343 821.494 463.845 821.674 465.105C821.756 465.673 821.823 466.451 821.874 467.137C824.615 469.37 827.931 471.06 831.309 472.084C840.902 474.982 845.07 456.636 844.5 447.486C843.925 438.331 830.359 412.207 825.837 411.664C821.32 411.122 815.822 450.343 815.822 450.343Z" fill="#FFA412"/>
<path d="M815.237 453.179C815.612 451.387 815.822 450.343 815.822 450.343C815.524 451.311 815.329 452.253 815.237 453.179Z" fill="#E58638"/>
<path d="M854.849 475.765C872.363 475.765 879.313 470.86 879.847 470.45L880.981 462.222C880.812 462.345 857.313 476.42 820.94 462.939L821.71 469.17C835.703 474.362 845.753 475.765 854.849 475.765Z" fill="#163560"/>
<path d="M768.224 484.285C768.224 491.479 775.579 495.903 783.479 498.054C772.592 485.125 796.409 406.892 797.02 404.895C784.962 433.431 768.224 475.079 768.224 484.285Z" fill="#FFA412"/>
<path d="M844.233 769.305H850.085C852.046 768.998 853.493 768.43 855.5 768.169C858.555 767.769 859.956 769.019 860.238 769.305C860.274 769.341 860.295 769.362 860.295 769.362H885.144C885.77 768.471 885.169 766.407 884.579 764.892C884.184 763.863 883.321 763.079 882.254 762.772C879.62 762.009 874.426 761.333 869.667 757.037C866.993 754.626 856.743 748.164 856.743 748.164L856.691 748.154C856.465 748.159 855.393 748.486 850.732 752.414C848.319 754.441 844.213 749.551 844.213 749.551C844.213 749.551 843.443 750.186 842.868 751.374C842.406 752.311 842.067 753.596 842.334 755.179C842.704 757.411 841.508 761.564 840.553 764.369C839.973 766.069 839.485 767.278 839.485 767.278C839.485 767.278 839.203 768.676 844.233 769.305Z" fill="#233862"/>
<path d="M842.863 751.369C844.259 752.352 847.205 754.282 849.161 754.539C851.799 754.882 856.737 748.164 856.737 748.164L856.686 748.154C856.46 748.159 855.387 748.486 850.727 752.414C848.314 754.441 844.208 749.551 844.208 749.551C844.208 749.551 843.438 750.186 842.863 751.369Z" fill="#466AA5"/>
<path d="M844.233 769.305H850.085C852.046 768.998 853.493 768.43 855.5 768.169C858.554 767.769 859.956 769.019 860.238 769.305C860.274 769.341 860.294 769.362 860.294 769.362H885.143C885.77 768.471 885.169 766.407 884.579 764.892C883.824 764.221 883.614 767.8 883.193 768.368C882.777 768.937 862.922 768.578 861.773 767.744C860.628 766.914 857.184 765.455 852.389 766.602C848.216 767.595 842.067 765.045 840.542 764.369C839.962 766.069 839.475 767.278 839.475 767.278C839.475 767.278 839.203 768.676 844.233 769.305Z" fill="#466AA5"/>
<path d="M813.021 769.305H818.872C820.833 768.998 822.281 768.43 824.288 768.169C827.342 767.769 828.743 769.019 829.025 769.305C829.061 769.341 829.082 769.362 829.082 769.362H853.931C854.557 768.471 853.957 766.407 853.366 764.892C852.971 763.863 852.109 763.079 851.041 762.772C848.408 762.009 843.208 761.333 838.455 757.037C835.78 754.626 825.53 748.164 825.53 748.164L825.478 748.154C825.253 748.159 824.18 748.486 819.519 752.414C817.106 754.441 813 749.551 813 749.551C813 749.551 812.23 750.186 811.655 751.374C811.193 752.311 810.854 753.596 811.121 755.179C811.491 757.411 810.295 761.564 809.34 764.369C808.76 766.069 808.273 767.278 808.273 767.278C808.273 767.278 807.985 768.676 813.021 769.305Z" fill="#233862"/>
<path d="M811.644 751.369C813.04 752.352 815.987 754.282 817.942 754.539C820.581 754.882 825.518 748.164 825.518 748.164L825.467 748.154C825.241 748.159 824.168 748.486 819.508 752.414C817.095 754.441 812.989 749.551 812.989 749.551C812.989 749.551 812.224 750.186 811.644 751.369Z" fill="#466AA5"/>
<path d="M813.019 769.305H818.871C820.832 768.998 822.279 768.43 824.286 768.169C827.341 767.769 828.742 769.019 829.024 769.305C829.06 769.341 829.081 769.362 829.081 769.362H853.93C854.556 768.471 853.955 766.407 853.365 764.892C852.61 764.221 852.4 767.8 851.979 768.368C851.563 768.937 831.709 768.578 830.559 767.744C829.414 766.914 825.975 765.455 821.176 766.602C817.003 767.595 810.853 765.045 809.329 764.369C808.749 766.069 808.261 767.278 808.261 767.278C808.261 767.278 807.984 768.676 813.019 769.305Z" fill="#466AA5"/>
<path d="M771.847 525.237C771.847 525.237 769.312 531.197 766.668 532.861C764.03 534.525 761.52 538.519 760.971 541.735C759.964 547.638 764.502 551.299 767.839 551.299C771.175 551.299 774.363 546.763 776.324 535.928C776.431 535.334 779.598 529.118 779.598 529.118L771.847 525.237Z" fill="#FFB27D"/>
<path d="M935.228 402.049L934.838 406.048L933.611 418.643L932.825 426.708H916.703L915.712 418.643L914.162 406.048L913.669 402.049H935.228Z" fill="#EE9849"/>
<path d="M936.372 402.048H912.4L912.867 399.647H935.786L936.372 402.048Z" fill="#D17A33"/>
<path d="M934.837 406.047L933.61 418.643H915.711L914.161 406.047H934.837Z" fill="#D17A33"/>
<path d="M936.956 410.579C936.956 410.579 932.886 406.042 928.81 409.509C924.74 412.975 929.082 420.374 932.614 422.396C936.145 424.419 937.28 425.474 937.28 425.474L936.956 410.579Z" fill="#FFB27D"/>
<path d="M844.546 526.195L841.482 525.964C841.518 525.898 847.477 472.508 845.727 450.338C842.467 409.038 824.055 374.552 823.845 374.25L829.522 373.237C829.753 373.564 833.146 380.825 837.565 393.974C841.641 406.088 848.104 426.231 849.115 448.802C850.116 471.095 844.7 525.923 844.546 526.195Z" fill="#BC3F3F"/>
<path d="M807.424 514.454C807.424 514.454 810.401 507.147 815.134 505.324L839.3 509.866C839.3 509.866 833.336 515.529 832.776 519.221L807.424 514.454Z" fill="#D2E4FF"/>
<path d="M837.76 555.698L796.46 547.936C794.52 547.572 793.242 545.703 793.606 543.773L798.765 516.461C799.129 514.526 801.003 513.251 802.943 513.614L844.243 521.377C846.184 521.74 847.462 523.604 847.097 525.539L841.939 552.851C841.569 554.786 839.701 556.061 837.76 555.698Z" fill="#912F2F"/>
<path d="M822.917 499.479L803.165 499.306L802.943 524.559L822.695 524.732L822.917 499.479Z" fill="#E58638"/>
<path d="M821.781 499.468L802.029 499.296L801.808 524.549L821.56 524.721L821.781 499.468Z" fill="#EE9849"/>
<path d="M833.796 514.546L818.111 502.571L802.724 522.624L818.409 534.6L833.796 514.546Z" fill="#578E9B"/>
<path d="M832.029 513.205L816.344 501.23L800.957 521.284L816.642 533.259L832.029 513.205Z" fill="#74ACBE"/>
<path d="M827.669 553.798L788.124 546.364C785.701 545.908 784.105 543.578 784.562 541.156L789.392 515.596C789.849 513.174 792.184 511.587 794.612 512.042L834.157 519.477C836.58 519.933 838.176 522.262 837.72 524.684L832.889 550.245C832.433 552.667 830.097 554.259 827.669 553.798Z" fill="#BC3F3F"/>
<path d="M818.322 323.621C818.322 323.621 805.679 298.521 823.347 288.598C841.01 278.675 853.945 282.572 863.662 294.707L818.322 323.621Z" fill="#233862"/>
<path d="M889.492 291.947C885.857 286.136 873.133 287.073 857.78 293.345C851.774 295.793 845.383 299.059 838.967 303.048C830.985 308.015 824.035 313.447 818.584 318.762C808.415 328.68 803.457 338.173 806.747 343.442C807.758 345.045 809.267 346.089 811.531 346.688C813.779 341.85 820.242 337.323 822.074 333.555C824.661 328.23 831.201 318.578 843.166 311.128C852.359 305.409 861.506 302.039 867.799 301.635C871.459 301.399 874.159 302.162 875.345 304.062C876.269 305.542 876.171 307.549 875.217 309.868C876.115 311.374 877.131 313.494 877.968 316.31C887.931 306.509 892.751 297.155 889.492 291.947Z" fill="#2B478B"/>
<path d="M1121.56 153.043C1085.59 153.043 1056.32 182.238 1056.32 218.123C1056.32 254.007 1085.59 283.198 1121.56 283.198C1157.54 283.198 1186.8 254.007 1186.8 218.123C1186.8 182.238 1157.54 153.043 1121.56 153.043ZM1121.56 278.955C1087.94 278.955 1060.58 251.666 1060.58 218.123C1060.58 184.58 1087.94 157.291 1121.56 157.291C1155.19 157.291 1182.55 184.58 1182.55 218.123C1182.55 251.666 1155.19 278.955 1121.56 278.955Z" fill="#D3D5F8"/>
<path d="M1121.56 168.789C1123 168.789 1124.16 167.629 1124.16 166.194C1124.16 164.763 1123 163.599 1121.56 163.599C1120.13 163.599 1118.96 164.758 1118.96 166.194C1118.97 167.625 1120.13 168.789 1121.56 168.789Z" fill="#D3D5F8"/>
<path d="M1121.56 268.295C1120.13 268.295 1118.96 269.459 1118.96 270.89C1118.96 272.321 1120.12 273.484 1121.56 273.484C1123 273.484 1124.16 272.325 1124.16 270.89C1124.16 269.459 1123 268.295 1121.56 268.295Z" fill="#D3D5F8"/>
<path d="M1171.44 215.949C1170.01 215.949 1168.84 217.108 1168.84 218.544C1168.84 219.975 1170 221.139 1171.44 221.139C1172.88 221.139 1174.04 219.979 1174.04 218.544C1174.04 217.108 1172.88 215.949 1171.44 215.949Z" fill="#D3D5F8"/>
<path d="M1145.83 259.736C1144.84 260.773 1144.88 262.417 1145.92 263.404C1146.96 264.391 1148.6 264.355 1149.6 263.318C1150.59 262.281 1150.55 260.642 1149.51 259.65C1148.47 258.663 1146.83 258.699 1145.83 259.736Z" fill="#D3D5F8"/>
<path d="M1162.85 243.596C1161.86 244.633 1161.9 246.277 1162.94 247.264C1163.98 248.251 1165.63 248.215 1166.62 247.178C1167.61 246.141 1167.57 244.497 1166.53 243.51C1165.49 242.523 1163.85 242.563 1162.85 243.596Z" fill="#D3D5F8"/>
<path d="M1165.86 196.118C1167.16 195.498 1167.7 193.945 1167.08 192.654C1166.46 191.363 1164.9 190.82 1163.61 191.445C1162.31 192.065 1161.77 193.619 1162.39 194.909C1163.02 196.2 1164.57 196.739 1165.86 196.118Z" fill="#D3D5F8"/>
<path d="M1149.12 173.978C1147.92 173.199 1146.31 173.548 1145.53 174.753C1144.75 175.957 1145.1 177.56 1146.31 178.339C1147.51 179.118 1149.12 178.769 1149.9 177.565C1150.68 176.36 1150.33 174.757 1149.12 173.978Z" fill="#D3D5F8"/>
<path d="M1075.46 215.079C1074.02 215.079 1072.85 216.239 1072.85 217.674C1072.85 219.105 1074.02 220.269 1075.46 220.269C1076.89 220.269 1078.06 219.11 1078.06 217.674C1078.06 216.239 1076.89 215.079 1075.46 215.079Z" fill="#D3D5F8"/>
<path d="M1097.39 258.78C1096.35 259.767 1096.31 261.411 1097.3 262.448C1098.29 263.485 1099.94 263.526 1100.98 262.534C1102.02 261.547 1102.06 259.903 1101.07 258.866C1100.07 257.829 1098.43 257.793 1097.39 258.78Z" fill="#D3D5F8"/>
<path d="M1080.37 242.64C1079.33 243.628 1079.29 245.272 1080.28 246.309C1081.27 247.346 1082.92 247.386 1083.96 246.395C1085 245.407 1085.04 243.764 1084.05 242.726C1083.05 241.694 1081.41 241.653 1080.37 242.64Z" fill="#D3D5F8"/>
<path d="M1081.04 195.249C1082.33 195.869 1083.88 195.331 1084.51 194.04C1085.13 192.749 1084.59 191.2 1083.3 190.576C1082 189.955 1080.45 190.494 1079.82 191.785C1079.2 193.08 1079.74 194.629 1081.04 195.249Z" fill="#D3D5F8"/>
<path d="M1097.77 173.109C1096.56 173.888 1096.22 175.491 1096.99 176.695C1097.77 177.9 1099.38 178.244 1100.59 177.47C1101.8 176.691 1102.14 175.088 1101.37 173.883C1100.59 172.679 1098.98 172.334 1097.77 173.109Z" fill="#D3D5F8"/>
<path d="M1146.07 199.098L1124.82 213.748C1124.74 213.703 1124.66 213.657 1124.58 213.617L1122.3 173.562V213.617C1121.44 214.038 1120.85 214.921 1120.85 215.944C1120.85 217.375 1122.01 218.539 1123.45 218.539C1124.89 218.539 1126.05 217.38 1126.05 215.944C1126.05 215.813 1126.04 215.686 1126.02 215.559L1146.07 199.098Z" fill="#D3D5F8"/>
<path d="M953.337 765.657C955.584 762.058 962.349 752.719 971.36 753.953C981.174 755.297 960.52 761.894 954.197 765.687C955.601 765.704 956.811 765.593 957.694 765.272C961.924 763.735 969.165 766.68 971.481 767.714H931.227C931.507 766.733 932.23 765.131 934.104 763.963C934.764 763.554 936.094 763.495 937.808 763.624C935.411 760.749 933.749 751.562 940.416 753.923C945.283 755.653 945.271 761.263 944.79 764.588C945.827 764.752 946.876 764.921 947.914 765.073C949.92 754.66 957.006 724.15 971.372 723.332C985.938 722.508 959.018 754.975 950.058 765.359C951.21 765.5 952.317 765.605 953.337 765.657Z" fill="#8D91CC"/>
<path d="M1203.34 478.349C1180.66 472.589 1155.73 437.49 1155.73 437.49L1162.11 431.965C1168.72 439.742 1196.22 453.132 1196.22 453.132C1196.07 446.015 1196.26 439.527 1196.7 433.619C1199.75 393.465 1214.93 380.091 1219.07 377.152C1219.74 376.676 1220.12 376.476 1220.12 376.476C1220.12 376.476 1220.14 376.768 1220.16 377.321C1220.22 378.514 1220.33 380.921 1220.44 384.218C1221.29 408.79 1222.3 483.162 1203.34 478.349Z" fill="#D9935C"/>
<path d="M1162.11 431.965C1162.01 431.018 1161.38 417.224 1158.63 414.597C1155.89 411.97 1150.46 408.396 1148.9 408.683C1147.34 408.975 1142.05 417.756 1144.55 423.808C1147.05 429.86 1155.73 437.495 1155.73 437.495L1162.11 431.965Z" fill="#D9935C"/>
<path d="M1167.75 433.568L1152.81 434.192C1152.31 434.213 1151.9 433.829 1151.88 433.332L1150.69 404.92C1150.67 404.423 1151.05 404.008 1151.55 403.988L1166.49 403.363C1166.98 403.343 1167.4 403.727 1167.42 404.218L1168.61 432.631C1168.63 433.127 1168.25 433.547 1167.75 433.568Z" fill="#F1A34F"/>
<path d="M1163.87 433.728L1150.32 434.291C1149.44 434.327 1148.69 433.646 1148.66 432.77L1147.52 405.74C1147.49 404.865 1148.17 404.122 1149.05 404.087L1162.6 403.523C1163.48 403.487 1164.22 404.168 1164.26 405.044L1165.39 432.074C1165.43 432.955 1164.75 433.692 1163.87 433.728Z" fill="#D86713"/>
<path d="M1147.77 409.733C1147.77 409.733 1151.84 405.196 1155.92 408.663C1159.99 412.129 1155.64 419.528 1152.11 421.55C1148.58 423.573 1147.45 424.628 1147.45 424.628L1147.77 409.733Z" fill="#D9935C"/>
<path d="M1252.73 711.788C1251.35 717.266 1249.83 722.484 1248.28 727.343C1247.95 728.383 1247.62 729.407 1247.29 730.41C1247.13 730.907 1246.96 731.398 1246.8 731.885C1246.47 732.847 1246.15 733.79 1245.83 734.711C1245.41 735.915 1244.99 737.087 1244.57 738.219C1244.27 739.058 1243.97 739.883 1243.67 740.692C1239.07 752.996 1235.21 760.794 1235.21 760.794L1226.05 760.164C1226.05 760.164 1229.49 743.836 1230.18 720.451C1230.2 719.617 1230.22 718.777 1230.24 717.922C1230.27 716.109 1230.29 714.261 1230.29 712.371C1230.29 711.598 1230.29 710.815 1230.28 710.026C1230.1 689.883 1227.6 666.079 1219.62 643.35C1213.13 624.871 1208.43 607.585 1205.03 591.963C1194.06 541.528 1196.64 508.395 1196.64 508.395L1248.19 514.411L1250.6 514.693C1250.81 538.313 1251.42 570.386 1251.96 595.46C1252.05 599.812 1252.14 603.955 1252.22 607.805C1252.57 623.903 1252.84 634.912 1252.84 634.912C1262.77 656.197 1259.17 686.253 1252.73 711.788Z" fill="#CB7D45"/>
<path d="M1237.97 331.812C1237.97 331.812 1250.17 342.17 1238.98 354.096C1238.98 354.096 1248.31 355.007 1251.46 352.431C1251.46 352.431 1250.84 353.686 1250.26 354.249C1250.26 354.249 1260.68 354.623 1264.98 351.382C1269.28 348.141 1266.52 294.967 1237.6 300.911C1237.6 300.911 1213.09 299.063 1215.38 327.357C1217.66 355.647 1208.41 355.647 1208.41 355.647C1208.41 355.647 1210.98 356.912 1212.22 356.912C1212.22 356.912 1214.04 356.22 1214.4 355.217C1214.4 355.217 1214.04 356.789 1213.57 357.291C1213.57 357.291 1223.56 358.233 1228.55 354.474C1233.54 350.716 1239.4 337.649 1237.97 331.812Z" fill="#233862"/>
<path d="M1277.33 502.619C1267.59 480.822 1262.93 474.658 1262.77 467.802C1262.64 462.379 1265.32 456.527 1270.53 442.18C1271.75 438.8 1272.6 435.324 1273.12 431.806C1277.24 404.141 1261.2 374.239 1251.24 372.201C1248.47 371.469 1243.76 361.479 1243.82 345.381L1242.57 345.627L1221.58 349.774C1221.58 349.774 1222.06 356.364 1222.08 362.57C1222.09 367.741 1221.81 373.005 1220.63 373.619C1219.12 373.757 1217.75 374.029 1217.75 374.029C1217.75 374.029 1199.99 386.471 1198.84 403.348C1197.3 425.892 1213.24 452.615 1199.11 497.668C1184.68 543.684 1282.72 514.668 1277.33 502.619Z" fill="#D9935C"/>
<path d="M1221.58 349.769C1221.58 349.769 1222.06 356.359 1222.08 362.565C1233.82 362.232 1240.03 351.546 1242.57 345.627L1221.58 349.769Z" fill="#CB7D45"/>
<path d="M1244.73 343.343C1244.73 343.343 1250.89 333.645 1252.37 325.35C1253.42 319.426 1250.4 297.481 1228.29 300.64C1228.29 300.64 1221.87 301.27 1215.83 305.34C1211.03 308.576 1204.1 315.555 1211.85 334.71L1213.86 341.182L1244.73 343.343Z" fill="#233862"/>
<path d="M1217.66 355.647C1217.66 355.647 1245.44 356.103 1245.46 338.837C1245.48 321.572 1249.08 310.005 1231.34 308.981C1213.6 307.957 1210.15 314.541 1208.74 320.307C1207.32 326.067 1210.43 355.084 1217.66 355.647Z" fill="#D9935C"/>
<path d="M1218.69 308.561C1218.69 308.561 1226.3 328.817 1237.97 331.812C1249.65 334.808 1254.71 331.684 1254.71 331.684C1254.71 331.684 1245.75 324.588 1243.9 312.202C1243.9 312.202 1224.43 298.92 1218.69 308.561Z" fill="#233862"/>
<path d="M1220.57 310.205C1220.57 310.205 1214.89 314.726 1213.5 319.124C1212.12 323.523 1211.5 332.57 1208.85 332.263C1208.85 332.263 1203.12 318.494 1209.56 310.707C1216.39 302.448 1220.57 310.205 1220.57 310.205Z" fill="#233862"/>
<path d="M1313.47 525.773L1305.13 528.267C1305.13 528.267 1277.61 482.722 1275.11 470.874C1274.29 467.013 1272.29 459.297 1269.96 450.643C1265.13 432.728 1258.89 410.813 1258.89 410.813L1256.84 401.939L1249.83 371.678C1249.83 371.678 1263.24 373.046 1271.09 376.317C1273.68 377.398 1275.67 378.688 1276.36 380.204C1282.12 392.846 1287.88 424.745 1291.92 447.505C1294.17 460.188 1295.89 470.034 1296.79 472.118C1299.29 477.945 1306.94 509.972 1313.47 525.773Z" fill="#D9935C"/>
<path d="M1219.52 310.891C1219.52 310.891 1224.94 332.104 1239.67 338.893C1239.67 338.893 1224.94 325.862 1223.69 311.858C1222.44 297.86 1219.52 310.891 1219.52 310.891Z" fill="#233862"/>
<path d="M1282.31 707.359C1279.34 738.915 1266.29 759.324 1266.29 759.324L1261.83 763.369C1261.83 763.369 1257.77 740.262 1254.84 713.81C1252.05 688.67 1248.22 662.06 1243.89 653.939C1237.41 641.804 1232.64 616.986 1229.21 590.77C1223.53 547.386 1221.52 500.146 1221.52 500.146L1273.79 497.561C1279.05 506.378 1281.34 520.837 1281.89 537.279C1282.46 554.565 1281.1 574.047 1279.2 591.456C1276.56 615.829 1272.88 636.141 1272.02 640.708C1272.02 640.713 1272.02 640.718 1272.02 640.729C1271.9 641.328 1272.08 641.932 1272.36 642.475C1282.76 663.012 1284.26 686.509 1282.31 707.359Z" fill="#D9935C"/>
<path d="M1221.31 430.163C1220.13 458.805 1215.83 487.172 1203.33 485.344C1188.01 483.111 1184.01 468.846 1183.2 458.237C1182.7 451.637 1183.42 446.45 1183.42 446.45C1183.42 446.45 1190.96 446.414 1192.19 445.293C1197.98 439.958 1196.26 387.613 1199.13 382.175C1202 376.743 1220.6 373.251 1220.6 373.251C1220.6 373.251 1222.47 401.847 1221.31 430.163Z" fill="#EE9849"/>
<path d="M1221.31 430.163C1220.13 458.806 1215.83 487.172 1203.33 485.344C1188.01 483.111 1184.01 468.846 1183.2 458.237C1186.96 458.048 1193.58 457.131 1196.22 453.127C1199.98 447.392 1211.74 410.496 1211.74 410.496C1211.74 410.496 1216.37 418.78 1221.31 430.163Z" fill="#E58638"/>
<path d="M1252.73 711.788C1251.35 717.267 1249.83 722.484 1248.28 727.343C1247.95 728.383 1247.62 729.407 1247.29 730.41C1247.13 730.907 1246.96 731.399 1246.8 731.885C1246.47 732.848 1246.15 733.79 1245.83 734.711C1245.41 735.915 1244.99 737.087 1244.57 738.219C1244.27 739.059 1243.97 739.883 1243.67 740.692C1239.07 752.996 1235.21 760.794 1235.21 760.794L1226.05 760.164C1226.05 760.164 1229.49 743.836 1230.18 720.452C1230.2 719.617 1230.22 718.777 1230.24 717.922C1230.27 716.11 1230.29 714.261 1230.29 712.372C1230.29 711.599 1230.29 710.815 1230.28 710.027C1230.1 689.883 1227.6 666.079 1219.62 643.35C1213.13 624.871 1208.43 607.585 1205.03 591.963C1210.48 593.085 1215.28 591.938 1229.2 590.775C1230.66 590.653 1237.66 599.296 1244.57 610.729C1244.92 626.827 1252.84 634.912 1252.84 634.912C1262.77 656.197 1259.17 686.253 1252.73 711.788Z" fill="#233862"/>
<path d="M1282.31 707.359C1279.34 738.915 1266.29 759.325 1266.29 759.325L1261.83 763.37C1261.83 763.37 1257.77 740.262 1254.84 713.811C1252.05 688.67 1248.22 662.06 1243.89 653.939C1237.41 641.804 1232.64 616.986 1229.21 590.771C1234.02 592.767 1250.39 597.954 1279.2 591.457C1276.55 615.829 1272.87 636.141 1272.02 640.709C1272.02 640.714 1272.02 640.719 1272.01 640.729C1271.9 641.328 1272.07 641.932 1272.35 642.475C1282.76 663.012 1284.26 686.509 1282.31 707.359Z" fill="#2B478B"/>
<path d="M1292.32 553.802C1292.32 553.802 1281.38 557.171 1265.28 559.393C1245.33 562.143 1217.44 563.136 1192.54 553.802C1192.54 553.802 1190.48 516.833 1196.39 497.566C1202.29 478.288 1205.04 469.071 1205.04 469.071C1205.04 469.071 1228.69 474.985 1252.7 470.397C1256.07 469.757 1259.45 468.902 1262.77 467.802C1262.77 467.802 1277.58 499.173 1281.66 512.614C1285.73 526.055 1292.32 553.802 1292.32 553.802Z" fill="#2B478B"/>
<path d="M1292.32 553.802C1292.32 553.802 1281.38 557.171 1265.28 559.393C1235.73 542.68 1250.14 472.359 1250.14 472.359C1251.02 471.647 1251.87 470.991 1252.7 470.392C1256.07 469.752 1259.45 468.897 1262.77 467.796C1262.77 467.796 1277.59 499.168 1281.66 512.609C1285.73 526.05 1292.32 553.802 1292.32 553.802Z" fill="#233862"/>
<path d="M1316.5 483.439C1316.5 490.633 1309.15 495.057 1301.25 497.208C1293.66 499.276 1285.57 499.251 1283.04 497.561C1278.68 494.642 1271.56 462.205 1269.49 452.333C1269.12 450.541 1268.9 449.497 1268.9 449.497C1268.9 449.497 1263.23 462.999 1263.05 464.259C1262.97 464.827 1262.9 465.605 1262.85 466.291C1262.8 467.121 1262.76 467.807 1262.76 467.807C1262.76 467.807 1231.98 483.306 1205.04 469.072C1205.04 469.072 1194.09 405.923 1198.84 395.058C1201.2 389.656 1213.52 378.514 1218.46 373.706C1219.57 372.626 1219.45 370.486 1219.03 368.53C1218.67 366.876 1220.16 365.422 1221.8 365.847C1224.98 366.671 1230.68 366.528 1236.8 364.526C1239.84 363.538 1242.99 362.083 1245.96 360.056C1246.83 359.467 1248 360.01 1248.13 361.044C1248.6 364.807 1249.74 371.684 1251.82 371.684C1254.69 371.669 1274.25 374.065 1275.69 376.477C1276.18 377.316 1281.27 388.801 1287.69 404.008C1287.69 404.008 1287.7 404.018 1287.7 404.049C1299.76 432.585 1316.5 474.233 1316.5 483.439Z" fill="#EE9849"/>
<path d="M1268.9 449.497C1268.9 449.497 1263.23 462.999 1263.05 464.258C1262.97 464.827 1262.9 465.605 1262.85 466.291C1260.11 468.524 1256.8 470.213 1253.42 471.237C1243.82 474.135 1239.66 455.789 1240.23 446.64C1240.8 437.484 1254.37 411.361 1258.89 410.818C1263.4 410.275 1268.9 449.497 1268.9 449.497Z" fill="#E58638"/>
<path d="M1269.49 452.333C1269.12 450.541 1268.91 449.496 1268.91 449.496C1269.2 450.464 1269.4 451.406 1269.49 452.333Z" fill="#E58638"/>
<path d="M1230.15 476.03C1212.63 476.03 1205.41 470.018 1204.88 469.609L1203.74 461.381C1203.91 461.504 1227.41 475.579 1263.78 462.097L1263.01 468.329C1249.03 473.516 1239.24 476.03 1230.15 476.03Z" fill="#B64C41"/>
<path d="M1316.5 483.439C1316.5 490.633 1309.15 495.057 1301.25 497.207C1312.13 484.278 1288.32 406.046 1287.71 404.049C1299.76 432.584 1316.5 474.232 1316.5 483.439Z" fill="#E58638"/>
<path d="M1251.82 371.684C1251.82 371.684 1237.17 380.941 1226.09 378.75C1226.09 378.75 1223.43 377.076 1227.1 375.386C1230.54 373.809 1238.56 369.134 1236.8 364.521C1239.84 363.532 1242.99 362.078 1245.96 360.051C1246.83 359.462 1248 360.005 1248.13 361.039C1248.6 364.807 1249.74 371.684 1251.82 371.684Z" fill="#E58638"/>
<path d="M1240.49 768.459H1234.64C1232.68 768.152 1231.23 767.584 1229.23 767.323C1226.17 766.923 1224.77 768.173 1224.49 768.459C1224.45 768.495 1224.43 768.516 1224.43 768.516H1199.58C1198.96 767.625 1199.56 765.561 1200.15 764.046C1200.54 763.017 1201.41 762.233 1202.47 761.926C1205.11 761.163 1210.31 760.487 1215.06 756.191C1217.73 753.78 1227.98 747.318 1227.98 747.318L1228.04 747.308C1228.26 747.313 1229.33 747.64 1233.99 751.568C1236.41 753.595 1240.51 748.705 1240.51 748.705C1240.51 748.705 1241.28 749.34 1241.86 750.528C1242.32 751.465 1242.66 752.75 1242.39 754.333C1242.02 756.565 1243.22 760.718 1244.17 763.523C1244.75 765.223 1245.24 766.432 1245.24 766.432C1245.24 766.432 1245.52 767.83 1240.49 768.459Z" fill="#233862"/>
<path d="M1241.86 750.523C1240.47 751.506 1237.52 753.436 1235.57 753.692C1232.93 754.035 1227.99 747.318 1227.99 747.318L1228.04 747.307C1228.27 747.312 1229.34 747.64 1234 751.567C1236.41 753.595 1240.52 748.705 1240.52 748.705C1240.52 748.705 1241.29 749.34 1241.86 750.523Z" fill="#466AA5"/>
<path d="M1240.49 768.459H1234.64C1232.68 768.152 1231.23 767.584 1229.23 767.322C1226.17 766.923 1224.77 768.172 1224.49 768.459C1224.45 768.495 1224.43 768.515 1224.43 768.515H1199.58C1198.96 767.624 1199.56 765.561 1200.15 764.045C1200.9 763.375 1201.11 766.954 1201.53 767.522C1201.95 768.09 1221.8 767.732 1222.95 766.897C1224.1 766.068 1227.54 764.609 1232.34 765.756C1236.51 766.749 1242.66 764.199 1244.18 763.523C1244.76 765.223 1245.25 766.431 1245.25 766.431C1245.25 766.431 1245.52 767.829 1240.49 768.459Z" fill="#466AA5"/>
<path d="M1271.71 768.459H1265.86C1263.9 768.152 1262.45 767.584 1260.44 767.323C1257.39 766.923 1255.99 768.173 1255.7 768.459C1255.67 768.495 1255.65 768.516 1255.65 768.516H1230.8C1230.18 767.625 1230.78 765.561 1231.37 764.046C1231.76 763.017 1232.63 762.233 1233.69 761.926C1236.33 761.163 1241.52 760.487 1246.28 756.191C1248.95 753.78 1259.2 747.318 1259.2 747.318L1259.26 747.308C1259.49 747.313 1260.56 747.64 1265.22 751.568C1267.63 753.595 1271.74 748.705 1271.74 748.705C1271.74 748.705 1272.51 749.34 1273.08 750.528C1273.55 751.465 1273.88 752.75 1273.62 754.333C1273.25 756.565 1274.44 760.718 1275.4 763.523C1275.98 765.223 1276.47 766.432 1276.47 766.432C1276.47 766.432 1276.74 767.83 1271.71 768.459Z" fill="#233862"/>
<path d="M1273.08 750.523C1271.69 751.506 1268.74 753.436 1266.78 753.692C1264.15 754.035 1259.21 747.318 1259.21 747.318L1259.26 747.307C1259.49 747.312 1260.56 747.64 1265.22 751.567C1267.64 753.595 1271.74 748.705 1271.74 748.705C1271.74 748.705 1272.5 749.34 1273.08 750.523Z" fill="#466AA5"/>
<path d="M1271.71 768.459H1265.86C1263.89 768.152 1262.45 767.584 1260.44 767.322C1257.39 766.923 1255.98 768.172 1255.7 768.459C1255.67 768.495 1255.65 768.515 1255.65 768.515H1230.8C1230.18 767.624 1230.78 765.561 1231.37 764.045C1232.12 763.375 1232.33 766.954 1232.75 767.522C1233.17 768.09 1253.02 767.732 1254.17 766.897C1255.32 766.068 1258.76 764.609 1263.56 765.756C1267.73 766.749 1273.88 764.199 1275.4 763.523C1275.98 765.223 1276.47 766.431 1276.47 766.431C1276.47 766.431 1276.74 767.829 1271.71 768.459Z" fill="#466AA5"/>
<path d="M1334.14 561.231C1333.56 558.333 1331.52 555.978 1328.75 554.949C1324.24 553.285 1316.87 551.779 1307.8 554.437C1292.5 558.922 1291 568.307 1292.01 575.056C1293.02 581.804 1290.03 592.557 1290.47 600.212C1290.91 607.867 1293.11 627.088 1304.44 626.08C1315.77 625.071 1352.29 615.281 1352.29 615.281C1352.29 615.281 1358.6 603.305 1345.64 585.952C1337.94 575.66 1335.15 566.285 1334.14 561.231Z" fill="#D37129"/>
<path d="M1327.12 552.389L1324.1 552.66C1324.1 552.655 1323.75 550.571 1322.36 549.255C1321.29 548.246 1319.8 547.883 1317.96 548.18C1316.22 548.456 1314.96 549.255 1314.32 550.546C1313.42 552.353 1313.92 554.688 1313.93 554.713L1310.98 555.394C1310.94 555.236 1310.08 551.447 1311.63 548.262C1312.69 546.065 1314.6 544.795 1317.23 544.304C1319.95 543.869 1322.24 544.529 1324.06 546.27C1326.56 548.671 1327.1 552.24 1327.12 552.389Z" fill="#D37129"/>
<path d="M1359.8 613.571C1359.8 613.571 1323.27 623.387 1311.93 624.375C1300.6 625.404 1298.39 606.177 1297.98 598.502C1297.53 590.873 1300.52 580.11 1299.52 573.346C1299.32 572.066 1299.2 570.648 1299.29 569.219C1299.58 563.198 1302.96 556.362 1315.29 552.752C1324.38 550.08 1331.73 551.605 1336.25 553.269C1339.01 554.299 1341.08 556.644 1341.65 559.537C1341.78 560.126 1341.91 560.842 1342.07 561.549C1343.37 566.92 1346.38 575.256 1353.15 584.268C1366.11 601.605 1359.8 613.571 1359.8 613.571Z" fill="#F1A34F"/>
<path opacity="0.4" d="M1303.49 600.12L1325.51 595.148C1325.51 595.148 1330.63 610.872 1320.22 613.74C1309.83 616.602 1305.5 610.514 1303.49 600.12Z" fill="#D86713"/>
<path d="M1303.49 600.12C1303.49 600.12 1308.57 605.004 1315.44 603.279C1322.3 601.559 1325.51 595.148 1325.51 595.148L1303.49 600.12Z" fill="#D37129"/>
<path opacity="0.4" d="M1329.98 594.139L1351.99 589.172C1351.99 589.172 1357.12 604.897 1346.71 607.764C1336.31 610.626 1331.99 604.538 1329.98 594.139Z" fill="#D86713"/>
<path d="M1329.98 594.139C1329.98 594.139 1335.06 599.024 1341.92 597.298C1348.78 595.578 1351.99 589.167 1351.99 589.167L1329.98 594.139Z" fill="#D37129"/>
<path opacity="0.4" d="M1341.65 559.536C1341.79 560.125 1341.91 560.842 1342.07 561.549C1339.16 567.539 1333.64 575.194 1324.3 576.971C1308.43 580.059 1299.29 569.219 1299.29 569.219C1299.59 563.197 1302.96 556.362 1315.29 552.752C1324.38 550.079 1331.73 551.605 1336.25 553.269C1339.01 554.304 1341.08 556.649 1341.65 559.536Z" fill="#D86713"/>
<path d="M1324.53 580.294C1323.53 580.52 1322.53 579.89 1322.31 578.902L1321.94 577.263C1321.71 576.27 1322.34 575.276 1323.34 575.051C1324.33 574.826 1325.33 575.456 1325.55 576.444L1325.92 578.082C1326.15 579.071 1325.52 580.069 1324.53 580.294Z" fill="#D86713"/>
<path d="M1312.88 524.391C1312.88 524.391 1315.42 530.351 1318.05 532.015C1320.69 533.679 1323.2 537.673 1323.75 540.888C1324.76 546.792 1320.22 550.453 1316.88 550.453C1313.55 550.453 1310.36 545.917 1308.4 535.082C1308.29 534.488 1305.12 528.272 1305.12 528.272L1312.88 524.391Z" fill="#D9935C"/>
<path d="M69.8815 765.081C73.1218 759.973 82.8755 746.723 95.8695 748.472C110.021 750.379 80.2387 759.741 71.1214 765.123C73.1466 765.148 74.8907 764.99 76.1636 764.534C82.2638 762.353 92.7037 766.532 96.0431 768H38C38.405 766.607 39.4465 764.335 42.1495 762.676C43.1001 762.096 45.0177 762.013 47.4892 762.196C44.0341 758.116 41.637 745.081 51.2502 748.431C58.268 750.885 58.2514 758.846 57.5571 763.564C59.0532 763.796 60.5659 764.036 62.062 764.252C64.9551 749.476 75.1717 706.183 95.886 705.022C116.89 703.853 78.073 749.923 65.1535 764.658C66.8149 764.857 68.4102 765.007 69.8815 765.081Z" fill="#8D91CC"/>
</g>
<defs>
<clipPath id="clip0">
<rect width="1366" height="768" fill="white"/>
</clipPath>
</defs>
</svg>
