<svg viewBox="0 0 68 40" xmlns="http://www.w3.org/2000/svg">
<path d="M46.057 22.7637V28.7265H30.1248V24.242L37.3311 15.3136H30.2731V9.35535H45.7963L46 13.9933L38.5944 22.7637H46.057Z" fill="#F39D4E"/>
<path d="M68 18.1175L49.8964 37.2505C47.5542 39.7803 44.2005 40.6565 41.2514 39.4927C39.3498 38.7423 37.3807 37.0213 36.3557 35.1835L40.7119 31.2068C41.1165 31.9932 41.7953 32.6672 42.609 32.9907C43.4632 33.3277 44.3533 33.2289 45.167 32.4291L45.8369 31.7506L45.7964 9.35986L52.9758 12.1952L52.3914 25.3699L60.9689 15.3496L68 18.1175Z" fill="#F39D4E"/>
<path d="M0 25.9091L2.67486 22.1211C4.19886 23.2715 5.90717 24.0893 8.06055 24.0893C9.62051 24.0893 10.6994 23.6444 10.6994 22.8311C10.6994 21.9414 9.40023 21.6044 7.61998 21.2359C4.67988 20.6024 0.59791 19.6722 0.59791 15.1429C0.59791 10.9505 4.23482 8.90601 8.65846 8.90601C12.0751 8.90601 14.5252 10.0923 16.3459 11.3594L13.6665 15.1429C12.1785 14.2172 10.6949 13.5477 8.87424 13.5477C7.61549 13.5477 6.57252 13.8847 6.57252 14.6621C6.57252 15.5518 7.87173 15.8483 9.61601 16.2213C12.5471 16.7785 16.674 17.7401 16.674 22.2694C16.674 26.5022 12.9967 28.7265 8.24487 28.7265C4.56749 28.731 1.89713 27.356 0 25.9091Z" fill="#8D91CC"/>
<path d="M24.3165 23.3387H20.6031V28.7308H24.3165V23.3387Z" fill="#8D91CC"/>
<path d="M24.3165 14.8462V9.35523H19.6725V4.78992H13.6575V7.60729V9.35523V14.8507V16.3515V21.8289C13.6575 25.8371 15.7389 28.7353 20.6031 28.7353C22.0507 28.7353 23.2016 28.4747 24.3165 27.8816V22.2738C23.6466 22.6063 22.8284 22.9029 21.9023 22.9029C20.3828 22.9029 19.677 22.1255 19.677 20.8269V14.8507H24.3165V14.8462Z" fill="#8D91CC"/>
<path d="M23.5837 3.67561C23.5837 1.55922 25.1797 0 27.2611 0C29.3785 0 30.9385 1.55922 30.9385 3.67561C30.9385 5.75607 29.3785 7.31528 27.2611 7.31528C25.1797 7.31079 23.5837 5.75607 23.5837 3.67561ZM24.2536 9.35529H30.2731V28.7309H24.2536V9.35529ZM24.2536 9.35529H30.2731V28.7309H24.2536V9.35529Z" fill="#8D91CC"/>
</svg>
